G04*
G04 #@! TF.GenerationSoftware,Altium Limited,Altium Designer,20.0.13 (296)*
G04*
G04 Layer_Color=2752767*
%FSLAX25Y25*%
%MOIN*%
G70*
G01*
G75*
%ADD10C,0.01968*%
%ADD11C,0.00200*%
%ADD12C,0.00267*%
%ADD13C,0.00133*%
D10*
X236221Y385827D02*
G03*
X236221Y374016I5906J-5906D01*
G01*
X334646D02*
G03*
X334646Y385827I-5906J5906D01*
G01*
X59055D02*
G03*
X59055Y374016I5906J-5906D01*
G01*
X157480D02*
G03*
X157480Y385827I-5906J5906D01*
G01*
X236221Y212598D02*
G03*
X236221Y200787I5906J-5906D01*
G01*
X334646D02*
G03*
X334646Y212598I-5906J5906D01*
G01*
X157480Y200787D02*
G03*
X157480Y212598I-5906J5906D01*
G01*
X59055D02*
G03*
X59055Y200787I5906J-5906D01*
G01*
X236221Y374016D02*
X334646D01*
X236221Y385827D02*
X334646D01*
X59055Y374016D02*
X157480D01*
X59055Y385827D02*
X157480D01*
X236221Y212598D02*
X334646D01*
X59055D02*
X157480D01*
X236221Y200787D02*
X334646D01*
X59055D02*
X157480D01*
D11*
X261405Y423216D02*
Y424816D01*
X263005D01*
Y423216D01*
X261405D01*
Y442901D02*
Y444501D01*
X263005D01*
Y442901D01*
X261405D01*
X109843Y446838D02*
X109043Y448438D01*
X110643D01*
X109843Y446838D01*
Y428728D02*
X109043Y430328D01*
X110643D01*
X109843Y428728D01*
Y437783D02*
X109043Y439383D01*
X110643D01*
X109843Y437783D01*
X118898Y466523D02*
X119298Y466923D01*
X119698D01*
X119298Y467323D01*
X119698Y467723D01*
X119298D01*
X118898Y468123D01*
X118498Y467723D01*
X118098D01*
X118498Y467323D01*
X118098Y466923D01*
X118498D01*
X118898Y466523D01*
X109843D02*
X110242Y466923D01*
X110643D01*
X110242Y467323D01*
X110643Y467723D01*
X110242D01*
X109843Y468123D01*
X109442Y467723D01*
X109043D01*
X109442Y467323D01*
X109043Y466923D01*
X109442D01*
X109843Y466523D01*
X100787D02*
X101187Y466923D01*
X101587D01*
X101187Y467323D01*
X101587Y467723D01*
X101187D01*
X100787Y468123D01*
X100387Y467723D01*
X99987D01*
X100387Y467323D01*
X99987Y466923D01*
X100387D01*
X100787Y466523D01*
X149830Y494869D02*
X150230Y495669D01*
X149830Y496469D01*
X150630Y496069D01*
X151430Y496469D01*
X151030Y495669D01*
X151430Y494869D01*
X150630Y495269D01*
X149830Y494869D01*
X69830D02*
X70230Y495669D01*
X69830Y496469D01*
X70630Y496069D01*
X71430Y496469D01*
X71030Y495669D01*
X71430Y494869D01*
X70630Y495269D01*
X69830Y494869D01*
X38970Y405112D02*
Y404712D01*
X39770D01*
Y405112D01*
X40170D01*
Y405912D01*
X39770D01*
Y406312D01*
X38970D01*
Y405912D01*
X38570D01*
Y405112D01*
X38970D01*
Y511411D02*
Y511011D01*
X39770D01*
Y511411D01*
X40170D01*
Y512211D01*
X39770D01*
Y512611D01*
X38970D01*
Y512211D01*
X38570D01*
Y511411D01*
X38970D01*
X225978Y416529D02*
Y416129D01*
X226778D01*
Y416529D01*
X227178D01*
Y417329D01*
X226778D01*
Y417729D01*
X225978D01*
Y417329D01*
X225578D01*
Y416529D01*
X225978D01*
X168491Y416129D02*
X168891D01*
X169291Y416529D01*
X169691Y416129D01*
X170091D01*
Y416529D01*
X169691Y416929D01*
X170091Y417329D01*
Y417729D01*
X169691D01*
X169291Y417329D01*
X168891Y417729D01*
X168491D01*
Y417329D01*
X168891Y416929D01*
X168491Y416529D01*
Y416129D01*
X200775D02*
X201175D01*
X201575Y416529D01*
X201975Y416129D01*
X202375D01*
Y416529D01*
X201975Y416929D01*
X202375Y417329D01*
Y417729D01*
X201975D01*
X201575Y417329D01*
X201175Y417729D01*
X200775D01*
Y417329D01*
X201175Y416929D01*
X200775Y416529D01*
Y416129D01*
X230302Y262598D02*
X231102Y263398D01*
X231902Y262598D01*
X231102Y261798D01*
X230302Y262598D01*
Y252598D02*
X231102Y253398D01*
X231902Y252598D01*
X231102Y251798D01*
X230302Y252598D01*
X176759Y291641D02*
Y293241D01*
X178359D01*
Y291641D01*
X176759D01*
X177159Y292041D02*
Y292841D01*
X177959D01*
Y292041D01*
X177159D01*
X176759Y251641D02*
Y253241D01*
X178359D01*
Y251641D01*
X176759D01*
X177159Y252041D02*
Y252841D01*
X177959D01*
Y252041D01*
X177159D01*
X189830Y321247D02*
Y322847D01*
X191430D01*
Y321247D01*
X189830D01*
X190230Y321647D02*
Y322447D01*
X191030D01*
Y321647D01*
X190230D01*
X229830Y321247D02*
Y322847D01*
X231430D01*
Y321247D01*
X229830D01*
X230230Y321647D02*
Y322447D01*
X231030D01*
Y321647D01*
X230230D01*
X102428Y340539D02*
Y342139D01*
X104028D01*
Y340539D01*
X102428D01*
X102828Y340939D02*
Y341739D01*
X103628D01*
Y340939D01*
X102828D01*
X142428Y340539D02*
Y342139D01*
X144028D01*
Y340539D01*
X142428D01*
X142828Y340939D02*
Y341739D01*
X143628D01*
Y340939D01*
X142828D01*
X142428Y328728D02*
Y330328D01*
X144028D01*
Y328728D01*
X142428D01*
X142828Y329128D02*
Y329928D01*
X143628D01*
Y329128D01*
X142828D01*
X102428Y328728D02*
Y330328D01*
X104028D01*
Y328728D01*
X102428D01*
X102828Y329128D02*
Y329928D01*
X103628D01*
Y329128D01*
X102828D01*
X92468Y287350D02*
X92868D01*
X93268Y287750D01*
X93668Y287350D01*
X94068D01*
Y287750D01*
X93668Y288150D01*
X94068Y288550D01*
Y288950D01*
X93668D01*
X93268Y288550D01*
X92868Y288950D01*
X92468D01*
Y288550D01*
X92868Y288150D01*
X92468Y287750D01*
Y287350D01*
X102468D02*
X102868D01*
X103268Y287750D01*
X103668Y287350D01*
X104068D01*
Y287750D01*
X103668Y288150D01*
X104068Y288550D01*
Y288950D01*
X103668D01*
X103268Y288550D01*
X102868Y288950D01*
X102468D01*
Y288550D01*
X102868Y288150D01*
X102468Y287750D01*
Y287350D01*
X112468D02*
X112868D01*
X113268Y287750D01*
X113668Y287350D01*
X114068D01*
Y287750D01*
X113668Y288150D01*
X114068Y288550D01*
Y288950D01*
X113668D01*
X113268Y288550D01*
X112868Y288950D01*
X112468D01*
Y288550D01*
X112868Y288150D01*
X112468Y287750D01*
Y287350D01*
X122468D02*
X122868D01*
X123268Y287750D01*
X123668Y287350D01*
X124068D01*
Y287750D01*
X123668Y288150D01*
X124068Y288550D01*
Y288950D01*
X123668D01*
X123268Y288550D01*
X122868Y288950D01*
X122468D01*
Y288550D01*
X122868Y288150D01*
X122468Y287750D01*
Y287350D01*
X92468Y317350D02*
X92868D01*
X93268Y317750D01*
X93668Y317350D01*
X94068D01*
Y317750D01*
X93668Y318150D01*
X94068Y318550D01*
Y318950D01*
X93668D01*
X93268Y318550D01*
X92868Y318950D01*
X92468D01*
Y318550D01*
X92868Y318150D01*
X92468Y317750D01*
Y317350D01*
X102468D02*
X102868D01*
X103268Y317750D01*
X103668Y317350D01*
X104068D01*
Y317750D01*
X103668Y318150D01*
X104068Y318550D01*
Y318950D01*
X103668D01*
X103268Y318550D01*
X102868Y318950D01*
X102468D01*
Y318550D01*
X102868Y318150D01*
X102468Y317750D01*
Y317350D01*
X112468D02*
X112868D01*
X113268Y317750D01*
X113668Y317350D01*
X114068D01*
Y317750D01*
X113668Y318150D01*
X114068Y318550D01*
Y318950D01*
X113668D01*
X113268Y318550D01*
X112868Y318950D01*
X112468D01*
Y318550D01*
X112868Y318150D01*
X112468Y317750D01*
Y317350D01*
X122468D02*
X122868D01*
X123268Y317750D01*
X123668Y317350D01*
X124068D01*
Y317750D01*
X123668Y318150D01*
X124068Y318550D01*
Y318950D01*
X123668D01*
X123268Y318550D01*
X122868Y318950D01*
X122468D01*
Y318550D01*
X122868Y318150D01*
X122468Y317750D01*
Y317350D01*
X102428Y277153D02*
Y278753D01*
X104028D01*
Y277153D01*
X102428D01*
X102828Y277553D02*
Y278353D01*
X103628D01*
Y277553D01*
X102828D01*
X142428Y277153D02*
Y278753D01*
X144028D01*
Y277153D01*
X142428D01*
X142828Y277553D02*
Y278353D01*
X143628D01*
Y277553D01*
X142828D01*
X59843Y297229D02*
X59043Y298829D01*
X60643D01*
X59843Y297229D01*
X59055Y277547D02*
X58255Y279147D01*
X59855D01*
X59055Y277547D01*
X79528Y287389D02*
X78728Y288989D01*
X80328D01*
X79528Y287389D01*
X63071Y317310D02*
X62271Y318910D01*
X63871D01*
X63071Y317310D01*
Y317710D02*
X62671Y318510D01*
X63471D01*
X63071Y317710D01*
X83071Y317310D02*
X82271Y318910D01*
X83871D01*
X83071Y317310D01*
Y317710D02*
X82671Y318510D01*
X83471D01*
X83071Y317710D01*
X148419Y243694D02*
Y243295D01*
X149219D01*
Y243694D01*
X149619D01*
Y244495D01*
X149219D01*
Y244895D01*
X148419D01*
Y244495D01*
X148019D01*
Y243694D01*
X148419D01*
X166923Y346057D02*
Y345657D01*
X167723D01*
Y346057D01*
X168123D01*
Y346857D01*
X167723D01*
Y347257D01*
X166923D01*
Y346857D01*
X166523D01*
Y346057D01*
X166923D01*
X38970Y243694D02*
Y243295D01*
X39770D01*
Y243694D01*
X40170D01*
Y244495D01*
X39770D01*
Y244895D01*
X38970D01*
Y244495D01*
X38570D01*
Y243694D01*
X38970D01*
Y346057D02*
Y345657D01*
X39770D01*
Y346057D01*
X40170D01*
Y346857D01*
X39770D01*
Y347257D01*
X38970D01*
Y346857D01*
X38570D01*
Y346057D01*
X38970D01*
X229909Y280157D02*
X230709Y280958D01*
X231509Y280157D01*
X230709Y279358D01*
X229909Y280157D01*
Y290158D02*
X230709Y290957D01*
X231509Y290158D01*
X230709Y289357D01*
X229909Y290158D01*
X103386Y260224D02*
X102586Y261824D01*
X104186D01*
X103386Y260224D01*
Y260624D02*
X102986Y261424D01*
X103786D01*
X103386Y260624D01*
X123386Y260224D02*
X122586Y261824D01*
X124186D01*
X123386Y260224D01*
Y260624D02*
X122986Y261424D01*
X123786D01*
X123386Y260624D01*
X266916Y69082D02*
X267316D01*
X267716Y69482D01*
X268116Y69082D01*
X268516D01*
Y69482D01*
X268116Y69882D01*
X268516Y70282D01*
Y70682D01*
X268116D01*
X267716Y70282D01*
X267316Y70682D01*
X266916D01*
Y70282D01*
X267316Y69882D01*
X266916Y69482D01*
Y69082D01*
Y76956D02*
X267316D01*
X267716Y77356D01*
X268116Y76956D01*
X268516D01*
Y77356D01*
X268116Y77756D01*
X268516Y78156D01*
Y78556D01*
X268116D01*
X267716Y78156D01*
X267316Y78556D01*
X266916D01*
Y78156D01*
X267316Y77756D01*
X266916Y77356D01*
Y76956D01*
X206562Y77940D02*
Y79540D01*
X208162D01*
Y77940D01*
X206562D01*
X206962Y78340D02*
Y79140D01*
X207762D01*
Y78340D01*
X206962D01*
X246562Y77940D02*
Y79540D01*
X248162D01*
Y77940D01*
X246562D01*
X246962Y78340D02*
Y79140D01*
X247762D01*
Y78340D01*
X246962D01*
X246562Y89751D02*
Y91351D01*
X248162D01*
Y89751D01*
X246562D01*
X246962Y90151D02*
Y90951D01*
X247762D01*
Y90151D01*
X246962D01*
X206562Y89751D02*
Y91351D01*
X208162D01*
Y89751D01*
X206562D01*
X206962Y90151D02*
Y90951D01*
X207762D01*
Y90151D01*
X206962D01*
X196798Y100342D02*
X197198D01*
X197598Y100742D01*
X197998Y100342D01*
X198398D01*
Y100742D01*
X197998Y101142D01*
X198398Y101542D01*
Y101942D01*
X197998D01*
X197598Y101542D01*
X197198Y101942D01*
X196798D01*
Y101542D01*
X197198Y101142D01*
X196798Y100742D01*
Y100342D01*
Y130342D02*
X197198D01*
X197598Y130742D01*
X197998Y130342D01*
X198398D01*
Y130742D01*
X197998Y131142D01*
X198398Y131542D01*
Y131942D01*
X197998D01*
X197598Y131542D01*
X197198Y131942D01*
X196798D01*
Y131542D01*
X197198Y131142D01*
X196798Y130742D01*
Y130342D01*
X206798Y100342D02*
X207198D01*
X207598Y100742D01*
X207998Y100342D01*
X208398D01*
Y100742D01*
X207998Y101142D01*
X208398Y101542D01*
Y101942D01*
X207998D01*
X207598Y101542D01*
X207198Y101942D01*
X206798D01*
Y101542D01*
X207198Y101142D01*
X206798Y100742D01*
Y100342D01*
Y130342D02*
X207198D01*
X207598Y130742D01*
X207998Y130342D01*
X208398D01*
Y130742D01*
X207998Y131142D01*
X208398Y131542D01*
Y131942D01*
X207998D01*
X207598Y131542D01*
X207198Y131942D01*
X206798D01*
Y131542D01*
X207198Y131142D01*
X206798Y130742D01*
Y130342D01*
X216798Y100342D02*
X217198D01*
X217598Y100742D01*
X217998Y100342D01*
X218398D01*
Y100742D01*
X217998Y101142D01*
X218398Y101542D01*
Y101942D01*
X217998D01*
X217598Y101542D01*
X217198Y101942D01*
X216798D01*
Y101542D01*
X217198Y101142D01*
X216798Y100742D01*
Y100342D01*
Y130342D02*
X217198D01*
X217598Y130742D01*
X217998Y130342D01*
X218398D01*
Y130742D01*
X217998Y131142D01*
X218398Y131542D01*
Y131942D01*
X217998D01*
X217598Y131542D01*
X217198Y131942D01*
X216798D01*
Y131542D01*
X217198Y131142D01*
X216798Y130742D01*
Y130342D01*
X226798Y100342D02*
X227198D01*
X227598Y100742D01*
X227998Y100342D01*
X228398D01*
Y100742D01*
X227998Y101142D01*
X228398Y101542D01*
Y101942D01*
X227998D01*
X227598Y101542D01*
X227198Y101942D01*
X226798D01*
Y101542D01*
X227198Y101142D01*
X226798Y100742D01*
Y100342D01*
Y130342D02*
X227198D01*
X227598Y130742D01*
X227998Y130342D01*
X228398D01*
Y130742D01*
X227998Y131142D01*
X228398Y131542D01*
Y131942D01*
X227998D01*
X227598Y131542D01*
X227198Y131942D01*
X226798D01*
Y131542D01*
X227198Y131142D01*
X226798Y130742D01*
Y130342D01*
X236995Y131090D02*
X237395D01*
X237795Y131490D01*
X238195Y131090D01*
X238595D01*
Y131490D01*
X238195Y131890D01*
X238595Y132290D01*
Y132690D01*
X238195D01*
X237795Y132290D01*
X237395Y132690D01*
X236995D01*
Y132290D01*
X237395Y131890D01*
X236995Y131490D01*
Y131090D01*
Y98806D02*
X237395D01*
X237795Y99206D01*
X238195Y98806D01*
X238595D01*
Y99206D01*
X238195Y99606D01*
X238595Y100006D01*
Y100406D01*
X238195D01*
X237795Y100006D01*
X237395Y100406D01*
X236995D01*
Y100006D01*
X237395Y99606D01*
X236995Y99206D01*
Y98806D01*
X236720Y140932D02*
Y142532D01*
X238320D01*
Y140932D01*
X236720D01*
X237120Y141332D02*
Y142132D01*
X237920D01*
Y141332D01*
X237120D01*
X196720Y140932D02*
Y142532D01*
X198320D01*
Y140932D01*
X196720D01*
X197120Y141332D02*
Y142132D01*
X197920D01*
Y141332D01*
X197120D01*
X212783Y161602D02*
X213183D01*
X213583Y162002D01*
X213983Y161602D01*
X214383D01*
Y162002D01*
X213983Y162402D01*
X214383Y162802D01*
Y163202D01*
X213983D01*
X213583Y162802D01*
X213183Y163202D01*
X212783D01*
Y162802D01*
X213183Y162402D01*
X212783Y162002D01*
Y161602D01*
X220657D02*
X221057D01*
X221457Y162002D01*
X221857Y161602D01*
X222257D01*
Y162002D01*
X221857Y162402D01*
X222257Y162802D01*
Y163202D01*
X221857D01*
X221457Y162802D01*
X221057Y163202D01*
X220657D01*
Y162802D01*
X221057Y162402D01*
X220657Y162002D01*
Y161602D01*
X186208Y100263D02*
Y101863D01*
X187808D01*
Y100263D01*
X186208D01*
X186608Y100663D02*
Y101463D01*
X187408D01*
Y100663D01*
X186608D01*
X186208Y140263D02*
Y141863D01*
X187808D01*
Y140263D01*
X186208D01*
X186608Y140663D02*
Y141463D01*
X187408D01*
Y140663D01*
X186608D01*
X152743Y107783D02*
Y109383D01*
X154343D01*
Y107783D01*
X152743D01*
X153143Y108183D02*
Y108983D01*
X153943D01*
Y108183D01*
X153143D01*
X152743Y67783D02*
Y69383D01*
X154343D01*
Y67783D01*
X152743D01*
X153143Y68183D02*
Y68983D01*
X153943D01*
Y68183D01*
X153143D01*
X152743Y162901D02*
Y164501D01*
X154343D01*
Y162901D01*
X152743D01*
X153143Y163301D02*
Y164101D01*
X153943D01*
Y163301D01*
X153143D01*
X152743Y122901D02*
Y124501D01*
X154343D01*
Y122901D01*
X152743D01*
X153143Y123301D02*
Y124101D01*
X153943D01*
Y123301D01*
X153143D01*
X114357Y123216D02*
X114758D01*
X115157Y123616D01*
X115558Y123216D01*
X115957D01*
Y123616D01*
X115558Y124016D01*
X115957Y124416D01*
Y124816D01*
X115558D01*
X115157Y124416D01*
X114758Y124816D01*
X114357D01*
Y124416D01*
X114758Y124016D01*
X114357Y123616D01*
Y123216D01*
X122231D02*
X122632D01*
X123031Y123616D01*
X123432Y123216D01*
X123831D01*
Y123616D01*
X123432Y124016D01*
X123831Y124416D01*
Y124816D01*
X123432D01*
X123031Y124416D01*
X122632Y124816D01*
X122231D01*
Y124416D01*
X122632Y124016D01*
X122231Y123616D01*
Y123216D01*
Y86798D02*
X122632D01*
X123031Y87198D01*
X123432Y86798D01*
X123831D01*
Y87198D01*
X123432Y87598D01*
X123831Y87998D01*
Y88398D01*
X123432D01*
X123031Y87998D01*
X122632Y88398D01*
X122231D01*
Y87998D01*
X122632Y87598D01*
X122231Y87198D01*
Y86798D01*
X114357D02*
X114758D01*
X115157Y87198D01*
X115558Y86798D01*
X115957D01*
Y87198D01*
X115558Y87598D01*
X115957Y87998D01*
Y88398D01*
X115558D01*
X115157Y87998D01*
X114758Y88398D01*
X114357D01*
Y87998D01*
X114758Y87598D01*
X114357Y87198D01*
Y86798D01*
X299712Y116326D02*
Y117926D01*
X301312D01*
Y116326D01*
X299712D01*
X300112Y116726D02*
Y117526D01*
X300912D01*
Y116726D01*
X300112D01*
X259712Y116326D02*
Y117926D01*
X261312D01*
Y116326D01*
X259712D01*
X260112Y116726D02*
Y117526D01*
X260912D01*
Y116726D01*
X260112D01*
X90066Y140932D02*
Y142532D01*
X91666D01*
Y140932D01*
X90066D01*
X90466Y141332D02*
Y142132D01*
X91266D01*
Y141332D01*
X90466D01*
X50066Y140932D02*
Y142532D01*
X51666D01*
Y140932D01*
X50066D01*
X50466Y141332D02*
Y142132D01*
X51266D01*
Y141332D01*
X50466D01*
X38970Y176765D02*
Y176365D01*
X39770D01*
Y176765D01*
X40170D01*
Y177565D01*
X39770D01*
Y177965D01*
X38970D01*
Y177565D01*
X38570D01*
Y176765D01*
X38970D01*
Y58655D02*
Y58255D01*
X39770D01*
Y58655D01*
X40170D01*
Y59455D01*
X39770D01*
Y59855D01*
X38970D01*
Y59455D01*
X38570D01*
Y58655D01*
X38970D01*
X197435D02*
Y58255D01*
X198235D01*
Y58655D01*
X198635D01*
Y59455D01*
X198235D01*
Y59855D01*
X197435D01*
Y59455D01*
X197035D01*
Y58655D01*
X197435D01*
X60224Y100499D02*
X60624D01*
X61024Y100899D01*
X61424Y100499D01*
X61824D01*
Y100899D01*
X61424Y101299D01*
X61824Y101699D01*
Y102099D01*
X61424D01*
X61024Y101699D01*
X60624Y102099D01*
X60224D01*
Y101699D01*
X60624Y101299D01*
X60224Y100899D01*
Y100499D01*
Y110499D02*
X60624D01*
X61024Y110899D01*
X61424Y110499D01*
X61824D01*
Y110899D01*
X61424Y111299D01*
X61824Y111699D01*
Y112099D01*
X61424D01*
X61024Y111699D01*
X60624Y112099D01*
X60224D01*
Y111699D01*
X60624Y111299D01*
X60224Y110899D01*
Y110499D01*
X353531Y117047D02*
X354331Y117847D01*
X355131Y117047D01*
X354331Y116247D01*
X353531Y117047D01*
Y127047D02*
X354331Y127847D01*
X355131Y127047D01*
X354331Y126247D01*
X353531Y127047D01*
X377553Y535033D02*
Y534633D01*
X378353D01*
Y535033D01*
X378753D01*
Y535833D01*
X378353D01*
Y536233D01*
X377553D01*
Y535833D01*
X377153D01*
Y535033D01*
X377553D01*
X15348D02*
Y534633D01*
X16148D01*
Y535033D01*
X16548D01*
Y535833D01*
X16148D01*
Y536233D01*
X15348D01*
Y535833D01*
X14948D01*
Y535033D01*
X15348D01*
X377553Y15348D02*
Y14948D01*
X378353D01*
Y15348D01*
X378753D01*
Y16148D01*
X378353D01*
Y16548D01*
X377553D01*
Y16148D01*
X377153D01*
Y15348D01*
X377553D01*
X15348D02*
Y14948D01*
X16148D01*
Y15348D01*
X16548D01*
Y16148D01*
X16148D01*
Y16548D01*
X15348D01*
Y16148D01*
X14948D01*
Y15348D01*
X15348D01*
X90551Y427547D02*
X90951Y427947D01*
X91351D01*
X90951Y428346D01*
X91351Y428747D01*
X90951D01*
X90551Y429146D01*
X90151Y428747D01*
X89751D01*
X90151Y428346D01*
X89751Y427947D01*
X90151D01*
X90551Y427547D01*
Y427947D02*
X90751Y428147D01*
X90951D01*
X90751Y428346D01*
X90951Y428546D01*
X90751D01*
X90551Y428747D01*
X90351Y428546D01*
X90151D01*
X90351Y428346D01*
X90151Y428147D01*
X90351D01*
X90551Y427947D01*
X96850Y453137D02*
X97250Y453537D01*
X97650D01*
X97250Y453937D01*
X97650Y454337D01*
X97250D01*
X96850Y454737D01*
X96450Y454337D01*
X96050D01*
X96450Y453937D01*
X96050Y453537D01*
X96450D01*
X96850Y453137D01*
Y453537D02*
X97050Y453737D01*
X97250D01*
X97050Y453937D01*
X97250Y454137D01*
X97050D01*
X96850Y454337D01*
X96650Y454137D01*
X96450D01*
X96650Y453937D01*
X96450Y453737D01*
X96650D01*
X96850Y453537D01*
X89370Y446444D02*
X89770Y446844D01*
X90170D01*
X89770Y447244D01*
X90170Y447644D01*
X89770D01*
X89370Y448044D01*
X88970Y447644D01*
X88570D01*
X88970Y447244D01*
X88570Y446844D01*
X88970D01*
X89370Y446444D01*
Y446844D02*
X89570Y447044D01*
X89770D01*
X89570Y447244D01*
X89770Y447444D01*
X89570D01*
X89370Y447644D01*
X89170Y447444D01*
X88970D01*
X89170Y447244D01*
X88970Y447044D01*
X89170D01*
X89370Y446844D01*
X77165Y427547D02*
X77565Y427947D01*
X77965D01*
X77565Y428346D01*
X77965Y428747D01*
X77565D01*
X77165Y429146D01*
X76765Y428747D01*
X76365D01*
X76765Y428346D01*
X76365Y427947D01*
X76765D01*
X77165Y427547D01*
Y427947D02*
X77365Y428147D01*
X77565D01*
X77365Y428346D01*
X77565Y428546D01*
X77365D01*
X77165Y428747D01*
X76965Y428546D01*
X76765D01*
X76965Y428346D01*
X76765Y428147D01*
X76965D01*
X77165Y427947D01*
X55512Y438176D02*
X55912Y438576D01*
X56312D01*
X55912Y438976D01*
X56312Y439376D01*
X55912D01*
X55512Y439776D01*
X55112Y439376D01*
X54712D01*
X55112Y438976D01*
X54712Y438576D01*
X55112D01*
X55512Y438176D01*
Y438576D02*
X55712Y438776D01*
X55912D01*
X55712Y438976D01*
X55912Y439176D01*
X55712D01*
X55512Y439376D01*
X55312Y439176D01*
X55112D01*
X55312Y438976D01*
X55112Y438776D01*
X55312D01*
X55512Y438576D01*
X62598Y431484D02*
X62998Y431883D01*
X63398D01*
X62998Y432283D01*
X63398Y432684D01*
X62998D01*
X62598Y433083D01*
X62198Y432684D01*
X61798D01*
X62198Y432283D01*
X61798Y431883D01*
X62198D01*
X62598Y431484D01*
Y431883D02*
X62798Y432084D01*
X62998D01*
X62798Y432283D01*
X62998Y432483D01*
X62798D01*
X62598Y432684D01*
X62398Y432483D01*
X62198D01*
X62398Y432283D01*
X62198Y432084D01*
X62398D01*
X62598Y431883D01*
D12*
X171233Y482679D02*
G03*
X171233Y482679I-800J0D01*
G01*
Y442679D02*
G03*
X171233Y442679I-800J0D01*
G01*
Y433069D02*
G03*
X171233Y433069I-800J0D01*
G01*
X201193D02*
G03*
X201193Y433069I-800J0D01*
G01*
X201203Y442679D02*
G03*
X201203Y442679I-800J0D01*
G01*
X201233Y482679D02*
G03*
X201233Y482679I-800J0D01*
G01*
X178359Y302598D02*
G03*
X178359Y302598I-800J0D01*
G01*
Y312598D02*
G03*
X178359Y312598I-800J0D01*
G01*
Y322598D02*
G03*
X178359Y322598I-800J0D01*
G01*
X197650Y308819D02*
G03*
X197650Y308819I-800J0D01*
G01*
Y298819D02*
G03*
X197650Y298819I-800J0D01*
G01*
Y288819D02*
G03*
X197650Y288819I-800J0D01*
G01*
D13*
X177959Y302598D02*
G03*
X177959Y302598I-400J0D01*
G01*
Y312598D02*
G03*
X177959Y312598I-400J0D01*
G01*
Y322598D02*
G03*
X177959Y322598I-400J0D01*
G01*
X197250Y308819D02*
G03*
X197250Y308819I-400J0D01*
G01*
Y298819D02*
G03*
X197250Y298819I-400J0D01*
G01*
Y288819D02*
G03*
X197250Y288819I-400J0D01*
G01*
M02*
