M48
;Layer_Color=9474304
;FILE_FORMAT=2:5
INCH,LZ
;TYPE=PLATED
T1F00S00C0.01968
T2F00S00C0.02800
T3F00S00C0.03150
T4F00S00C0.03540
T5F00S00C0.03800
T6F00S00C0.03937
T7F00S00C0.04331
T8F00S00C0.04720
T9F00S00C0.04724
T10F00S00C0.05118
T11F00S00C0.05512
T12F00S00C0.11811
%
T01
X0055512Y0438976
X0062598Y0432283
X0077165Y0428346
X0090551
X008937Y0447244
X009685Y0453937
T02
X0103386Y0261024
X0123386
X0083071Y031811
X0063071
T03
X0197598Y0101142
X0207598
X0217598
X0227598
X0237795Y0099606
Y013189
X0227598Y0131142
X0217598
X0207598
X0197598
X0213583Y0162402
X0221457
X0267716Y0077756
Y0069882
X0123031Y0087598
X0115157
Y0124016
X0123031
X0061024Y0111299
Y0101299
X0093268Y028815
X0103268
X0113268
X0123268
Y031815
X0113268
X0103268
X0093268
X0201575Y0416929
X0169291
T04
X0207362Y007874
Y0090551
X0247362
Y007874
X0260512Y0117126
X0300512
X023752Y0141732
X019752
X0187008Y0141063
Y0101063
X0153543Y0108583
Y0123701
Y0163701
X0090866Y0141732
X0050866
X0153543Y0068583
X0177559Y0252441
Y0292441
X019063Y0322047
X0143228Y0329528
Y0341339
X0103228
Y0329528
Y0277953
X0143228
X023063Y0322047
T05
X0354331Y0117047
Y0127047
X0231102Y0252598
Y0262598
X0230709Y0280157
Y0290158
T06
X0177559Y0302598
Y0312598
Y0322598
X019685Y0308819
Y0298819
Y0288819
T07
X0200393Y0433069
X0200403Y0442679
X0200433Y0482679
X0170433
Y0442679
Y0433069
T08
X007063Y0495669
X015063
T09
X0059055Y0278346
X0059843Y0298029
X0079528Y0288189
X0109843Y0429528
Y0438583
Y0447638
T10
X0100787Y0467323
X0109843
X0118898
T11
X0262205Y0424016
Y0443701
T12
X0015748Y0015748
X0377953
X0197835Y0059055
X003937
Y0177165
Y0244094
Y0346457
X0167323
X0148819Y0244094
X0226378Y0416929
X003937Y0405512
X0015748Y0535433
X003937Y0511811
X0377953Y0535433
M30
