G04*
G04 #@! TF.GenerationSoftware,Altium Limited,Altium Designer,20.0.13 (296)*
G04*
G04 Layer_Color=65535*
%FSLAX25Y25*%
%MOIN*%
G70*
G01*
G75*
%ADD10C,0.00600*%
%ADD11C,0.01000*%
%ADD12C,0.01181*%
%ADD13C,0.00700*%
G36*
X313730Y287868D02*
X310668D01*
X315786Y302929D01*
X308219Y291950D01*
X305245D01*
X305065Y302636D01*
X300054Y287868D01*
X297342D01*
X304107Y307814D01*
X308248D01*
X308442Y296508D01*
X316209Y307814D01*
X320495D01*
X313730Y287868D01*
D02*
G37*
G36*
X375345Y304956D02*
X370155D01*
X365314Y290726D01*
X370505D01*
X369542Y287868D01*
X355546D01*
X356508Y290726D01*
X361698D01*
X366539Y304956D01*
X361349D01*
X362311Y307814D01*
X376308D01*
X375345Y304956D01*
D02*
G37*
G36*
X356333D02*
X351143D01*
X346302Y290726D01*
X351492D01*
X350530Y287868D01*
X336533Y287868D01*
X337496Y290726D01*
X342686D01*
X347527Y304956D01*
X342336Y304956D01*
X343298Y307814D01*
X357295Y307814D01*
X356333Y304956D01*
D02*
G37*
G36*
X299675Y304956D02*
X289586D01*
X287807Y299736D01*
X296351Y299736D01*
X295389Y296879D01*
X286845Y296879D01*
X284745Y290726D01*
X295534Y290726D01*
X294572Y287868D01*
X280167Y287868D01*
X286932Y307814D01*
X300637Y307814D01*
X299675Y304956D01*
D02*
G37*
G36*
X273198Y307784D02*
X273402D01*
X273664Y307755D01*
X273956Y307726D01*
X274277Y307668D01*
X274977Y307522D01*
X275735Y307318D01*
X276551Y306997D01*
X277339Y306618D01*
X277718Y306385D01*
X278097Y306093D01*
X278447Y305802D01*
X278767Y305481D01*
X279088Y305102D01*
X279351Y304693D01*
X279613Y304256D01*
X279788Y303760D01*
X279963Y303235D01*
X280050Y302681D01*
X280109Y302040D01*
Y301398D01*
X280050Y300669D01*
X279934Y299911D01*
X279730Y299095D01*
X279467Y298220D01*
X279438Y298162D01*
X279409Y298016D01*
X279321Y297782D01*
X279176Y297491D01*
X279030Y297112D01*
X278826Y296674D01*
X278592Y296208D01*
X278330Y295683D01*
X278038Y295129D01*
X277688Y294546D01*
X277309Y293963D01*
X276901Y293350D01*
X276464Y292767D01*
X275968Y292184D01*
X275443Y291601D01*
X274889Y291076D01*
X274860Y291047D01*
X274802Y290988D01*
X274685Y290901D01*
X274539Y290784D01*
X274364Y290638D01*
X274160Y290493D01*
X273898Y290318D01*
X273635Y290113D01*
X272994Y289705D01*
X272294Y289297D01*
X271507Y288918D01*
X270690Y288597D01*
X270661D01*
X270603Y288568D01*
X270457Y288539D01*
X270282Y288480D01*
X270078Y288422D01*
X269815Y288364D01*
X269495Y288305D01*
X269174Y288247D01*
X268765Y288160D01*
X268357Y288101D01*
X267891Y288043D01*
X267424Y287985D01*
X266899Y287927D01*
X266345Y287897D01*
X265179Y287868D01*
X259842D01*
X266608Y307814D01*
X272994D01*
X273198Y307784D01*
D02*
G37*
G36*
X331868Y308251D02*
X332130D01*
X332451Y308193D01*
X332830Y308134D01*
X333238Y308047D01*
X333646Y307930D01*
X334113Y307784D01*
X334550Y307580D01*
X335017Y307347D01*
X335425Y307085D01*
X335863Y306735D01*
X336242Y306356D01*
X336562Y305918D01*
X336854Y305422D01*
X336883Y305393D01*
X336912Y305306D01*
X336971Y305131D01*
X337058Y304898D01*
X337117Y304606D01*
X337204Y304256D01*
X337292Y303877D01*
X337350Y303410D01*
X337408Y302886D01*
Y302302D01*
Y301690D01*
X337350Y301019D01*
X337262Y300290D01*
X337117Y299532D01*
X336912Y298716D01*
X336650Y297841D01*
X336621Y297782D01*
X336562Y297637D01*
X336475Y297374D01*
X336358Y297054D01*
X336183Y296645D01*
X335979Y296179D01*
X335717Y295683D01*
X335425Y295100D01*
X335104Y294517D01*
X334725Y293904D01*
X334317Y293263D01*
X333880Y292621D01*
X333384Y292009D01*
X332859Y291367D01*
X332305Y290784D01*
X331693Y290230D01*
X331664Y290201D01*
X331547Y290113D01*
X331372Y289968D01*
X331110Y289793D01*
X330789Y289589D01*
X330439Y289326D01*
X330001Y289093D01*
X329535Y288830D01*
X329010Y288539D01*
X328456Y288305D01*
X327844Y288072D01*
X327202Y287839D01*
X326561Y287664D01*
X325861Y287518D01*
X325132Y287431D01*
X324403Y287402D01*
X324228D01*
X324024Y287431D01*
X323761Y287460D01*
X323441Y287489D01*
X323061Y287547D01*
X322653Y287635D01*
X322245Y287752D01*
X321778Y287897D01*
X321341Y288101D01*
X320874Y288335D01*
X320437Y288597D01*
X320029Y288918D01*
X319650Y289297D01*
X319300Y289734D01*
X319008Y290230D01*
Y290259D01*
X318950Y290376D01*
X318892Y290522D01*
X318833Y290755D01*
X318746Y291047D01*
X318658Y291396D01*
X318600Y291805D01*
X318512Y292242D01*
X318483Y292767D01*
X318454Y293350D01*
X318483Y293963D01*
X318542Y294633D01*
X318629Y295362D01*
X318775Y296150D01*
X318979Y296966D01*
X319241Y297841D01*
X319271Y297899D01*
X319329Y298045D01*
X319416Y298307D01*
X319533Y298628D01*
X319708Y299036D01*
X319912Y299474D01*
X320175Y299999D01*
X320466Y300553D01*
X320787Y301165D01*
X321137Y301778D01*
X321545Y302390D01*
X322012Y303031D01*
X322478Y303673D01*
X323003Y304285D01*
X323557Y304868D01*
X324169Y305422D01*
X324199Y305452D01*
X324315Y305539D01*
X324490Y305685D01*
X324753Y305860D01*
X325073Y306093D01*
X325423Y306326D01*
X325861Y306589D01*
X326327Y306851D01*
X326852Y307114D01*
X327406Y307376D01*
X328019Y307610D01*
X328660Y307843D01*
X329331Y308018D01*
X330031Y308163D01*
X330760Y308251D01*
X331489Y308280D01*
X331664D01*
X331868Y308251D01*
D02*
G37*
G36*
X297982Y465033D02*
X294920D01*
X300038Y480094D01*
X292471Y469116D01*
X289497D01*
X289317Y479802D01*
X284306Y465033D01*
X281594D01*
X288359Y484979D01*
X292500D01*
X292694Y473674D01*
X300461Y484979D01*
X304747D01*
X297982Y465033D01*
D02*
G37*
G36*
X378610Y482121D02*
X373419D01*
X368579Y467891D01*
X373769D01*
X372807Y465033D01*
X358810D01*
X359772Y467891D01*
X364963D01*
X369803Y482121D01*
X364613D01*
X365575Y484979D01*
X379572D01*
X378610Y482121D01*
D02*
G37*
G36*
X359597D02*
X354407D01*
X349566Y467891D01*
X354757D01*
X353794Y465033D01*
X339798D01*
X340760Y467891D01*
X345950D01*
X350791Y482121D01*
X345601D01*
X346563Y484979D01*
X360560D01*
X359597Y482121D01*
D02*
G37*
G36*
X340585D02*
X335395D01*
X330554Y467891D01*
X335744D01*
X334782Y465033D01*
X320785Y465033D01*
X321748Y467891D01*
X326938D01*
X331779Y482121D01*
X326588Y482121D01*
X327550Y484979D01*
X341547Y484979D01*
X340585Y482121D01*
D02*
G37*
G36*
X283927Y482121D02*
X273838D01*
X272059Y476902D01*
X280603Y476902D01*
X279641Y474044D01*
X271097Y474044D01*
X268997Y467891D01*
X279786Y467891D01*
X278824Y465033D01*
X264419Y465033D01*
X271184Y484979D01*
X284889Y484979D01*
X283927Y482121D01*
D02*
G37*
G36*
X257450Y484950D02*
X257654D01*
X257916Y484921D01*
X258208Y484891D01*
X258529Y484833D01*
X259228Y484687D01*
X259987Y484483D01*
X260803Y484162D01*
X261591Y483783D01*
X261970Y483550D01*
X262349Y483258D01*
X262699Y482967D01*
X263019Y482646D01*
X263340Y482267D01*
X263602Y481859D01*
X263865Y481421D01*
X264040Y480926D01*
X264215Y480401D01*
X264302Y479847D01*
X264361Y479205D01*
Y478564D01*
X264302Y477835D01*
X264186Y477077D01*
X263982Y476260D01*
X263719Y475385D01*
X263690Y475327D01*
X263661Y475181D01*
X263573Y474948D01*
X263428Y474656D01*
X263282Y474277D01*
X263078Y473840D01*
X262844Y473373D01*
X262582Y472848D01*
X262290Y472294D01*
X261940Y471711D01*
X261561Y471128D01*
X261153Y470516D01*
X260716Y469932D01*
X260220Y469349D01*
X259695Y468766D01*
X259141Y468241D01*
X259112Y468212D01*
X259054Y468154D01*
X258937Y468066D01*
X258791Y467949D01*
X258616Y467804D01*
X258412Y467658D01*
X258150Y467483D01*
X257887Y467279D01*
X257246Y466871D01*
X256546Y466462D01*
X255759Y466083D01*
X254942Y465763D01*
X254913D01*
X254854Y465733D01*
X254709Y465704D01*
X254534Y465646D01*
X254330Y465588D01*
X254067Y465529D01*
X253747Y465471D01*
X253426Y465413D01*
X253017Y465325D01*
X252609Y465267D01*
X252143Y465208D01*
X251676Y465150D01*
X251151Y465092D01*
X250597Y465063D01*
X249431Y465033D01*
X244094D01*
X250860Y484979D01*
X257246D01*
X257450Y484950D01*
D02*
G37*
G36*
X316120Y485416D02*
X316382D01*
X316703Y485358D01*
X317082Y485300D01*
X317490Y485212D01*
X317899Y485096D01*
X318365Y484950D01*
X318802Y484746D01*
X319269Y484512D01*
X319677Y484250D01*
X320115Y483900D01*
X320494Y483521D01*
X320814Y483083D01*
X321106Y482588D01*
X321135Y482559D01*
X321164Y482471D01*
X321223Y482296D01*
X321310Y482063D01*
X321369Y481771D01*
X321456Y481421D01*
X321543Y481042D01*
X321602Y480576D01*
X321660Y480051D01*
Y479468D01*
Y478855D01*
X321602Y478185D01*
X321514Y477456D01*
X321369Y476697D01*
X321164Y475881D01*
X320902Y475006D01*
X320873Y474948D01*
X320814Y474802D01*
X320727Y474540D01*
X320610Y474219D01*
X320435Y473811D01*
X320231Y473344D01*
X319969Y472848D01*
X319677Y472265D01*
X319356Y471682D01*
X318977Y471070D01*
X318569Y470428D01*
X318132Y469787D01*
X317636Y469174D01*
X317111Y468533D01*
X316557Y467949D01*
X315945Y467395D01*
X315916Y467366D01*
X315799Y467279D01*
X315624Y467133D01*
X315361Y466958D01*
X315041Y466754D01*
X314691Y466492D01*
X314253Y466258D01*
X313787Y465996D01*
X313262Y465704D01*
X312708Y465471D01*
X312096Y465238D01*
X311454Y465004D01*
X310813Y464829D01*
X310113Y464684D01*
X309384Y464596D01*
X308655Y464567D01*
X308480D01*
X308276Y464596D01*
X308013Y464625D01*
X307693Y464654D01*
X307313Y464713D01*
X306905Y464800D01*
X306497Y464917D01*
X306030Y465063D01*
X305593Y465267D01*
X305126Y465500D01*
X304689Y465763D01*
X304281Y466083D01*
X303902Y466462D01*
X303552Y466900D01*
X303260Y467395D01*
Y467425D01*
X303202Y467541D01*
X303144Y467687D01*
X303085Y467920D01*
X302998Y468212D01*
X302910Y468562D01*
X302852Y468970D01*
X302764Y469408D01*
X302735Y469932D01*
X302706Y470516D01*
X302735Y471128D01*
X302794Y471799D01*
X302881Y472528D01*
X303027Y473315D01*
X303231Y474131D01*
X303493Y475006D01*
X303523Y475065D01*
X303581Y475210D01*
X303668Y475473D01*
X303785Y475794D01*
X303960Y476202D01*
X304164Y476639D01*
X304427Y477164D01*
X304718Y477718D01*
X305039Y478331D01*
X305389Y478943D01*
X305797Y479555D01*
X306264Y480197D01*
X306730Y480838D01*
X307255Y481451D01*
X307809Y482034D01*
X308421Y482588D01*
X308451Y482617D01*
X308567Y482704D01*
X308742Y482850D01*
X309005Y483025D01*
X309325Y483258D01*
X309675Y483492D01*
X310113Y483754D01*
X310579Y484017D01*
X311104Y484279D01*
X311658Y484542D01*
X312271Y484775D01*
X312912Y485008D01*
X313583Y485183D01*
X314283Y485329D01*
X315012Y485416D01*
X315741Y485445D01*
X315916D01*
X316120Y485416D01*
D02*
G37*
G36*
X202347Y12336D02*
X198903D01*
X204659Y29277D01*
X196148Y16928D01*
X192802D01*
X192600Y28947D01*
X186963Y12336D01*
X183913D01*
X191523Y34771D01*
X196180D01*
X196398Y22054D01*
X205135Y34771D01*
X209956D01*
X202347Y12336D01*
D02*
G37*
G36*
X250268Y31557D02*
X244429D01*
X238984Y15550D01*
X244823D01*
X243740Y12336D01*
X227996D01*
X229079Y15550D01*
X234917D01*
X240362Y31557D01*
X234524D01*
X235606Y34771D01*
X251350D01*
X250268Y31557D01*
D02*
G37*
G36*
X186537Y31557D02*
X175188D01*
X173187Y25685D01*
X182798D01*
X181716Y22471D01*
X172105D01*
X169744Y15550D01*
X181879Y15550D01*
X180797Y12336D01*
X164594Y12336D01*
X172204Y34771D01*
X187619D01*
X186537Y31557D01*
D02*
G37*
G36*
X156755Y34738D02*
X156984D01*
X157280Y34705D01*
X157607Y34673D01*
X157968Y34607D01*
X158756Y34443D01*
X159608Y34213D01*
X160527Y33853D01*
X161412Y33426D01*
X161839Y33164D01*
X162265Y32836D01*
X162659Y32508D01*
X163020Y32147D01*
X163380Y31721D01*
X163675Y31261D01*
X163971Y30769D01*
X164167Y30212D01*
X164364Y29621D01*
X164463Y28998D01*
X164528Y28277D01*
Y27555D01*
X164463Y26735D01*
X164331Y25882D01*
X164102Y24964D01*
X163807Y23980D01*
X163774Y23914D01*
X163741Y23750D01*
X163643Y23488D01*
X163479Y23160D01*
X163315Y22733D01*
X163085Y22241D01*
X162823Y21717D01*
X162528Y21126D01*
X162199Y20503D01*
X161806Y19847D01*
X161380Y19191D01*
X160920Y18502D01*
X160428Y17846D01*
X159871Y17190D01*
X159280Y16534D01*
X158657Y15944D01*
X158624Y15911D01*
X158559Y15845D01*
X158428Y15747D01*
X158264Y15616D01*
X158067Y15452D01*
X157837Y15288D01*
X157542Y15091D01*
X157247Y14861D01*
X156525Y14402D01*
X155738Y13943D01*
X154852Y13517D01*
X153934Y13156D01*
X153901D01*
X153835Y13123D01*
X153672Y13090D01*
X153475Y13025D01*
X153245Y12959D01*
X152950Y12893D01*
X152589Y12828D01*
X152228Y12762D01*
X151769Y12664D01*
X151310Y12598D01*
X150785Y12533D01*
X150260Y12467D01*
X149670Y12401D01*
X149047Y12369D01*
X147735Y12336D01*
X141732D01*
X149342Y34771D01*
X156525D01*
X156755Y34738D01*
D02*
G37*
G36*
X222748Y35263D02*
X223043D01*
X223404Y35197D01*
X223831Y35132D01*
X224290Y35033D01*
X224749Y34902D01*
X225274Y34738D01*
X225766Y34509D01*
X226291Y34246D01*
X226750Y33951D01*
X227242Y33557D01*
X227668Y33131D01*
X228029Y32639D01*
X228357Y32081D01*
X228390Y32049D01*
X228423Y31950D01*
X228488Y31753D01*
X228587Y31491D01*
X228652Y31163D01*
X228751Y30769D01*
X228849Y30343D01*
X228915Y29818D01*
X228980Y29228D01*
Y28572D01*
Y27883D01*
X228915Y27129D01*
X228816Y26309D01*
X228652Y25456D01*
X228423Y24537D01*
X228128Y23553D01*
X228095Y23488D01*
X228029Y23324D01*
X227931Y23029D01*
X227800Y22668D01*
X227603Y22209D01*
X227373Y21684D01*
X227078Y21126D01*
X226750Y20470D01*
X226389Y19814D01*
X225963Y19125D01*
X225503Y18404D01*
X225011Y17682D01*
X224454Y16993D01*
X223864Y16272D01*
X223240Y15616D01*
X222551Y14993D01*
X222519Y14960D01*
X222388Y14861D01*
X222191Y14697D01*
X221896Y14501D01*
X221535Y14271D01*
X221141Y13976D01*
X220649Y13713D01*
X220124Y13418D01*
X219534Y13090D01*
X218911Y12828D01*
X218222Y12565D01*
X217500Y12303D01*
X216779Y12106D01*
X215991Y11942D01*
X215172Y11844D01*
X214352Y11811D01*
X214155D01*
X213925Y11844D01*
X213630Y11877D01*
X213269Y11909D01*
X212843Y11975D01*
X212384Y12073D01*
X211924Y12205D01*
X211400Y12369D01*
X210908Y12598D01*
X210383Y12861D01*
X209891Y13156D01*
X209432Y13517D01*
X209005Y13943D01*
X208611Y14435D01*
X208283Y14993D01*
Y15025D01*
X208218Y15157D01*
X208152Y15321D01*
X208087Y15583D01*
X207988Y15911D01*
X207890Y16305D01*
X207824Y16764D01*
X207726Y17256D01*
X207693Y17846D01*
X207660Y18502D01*
X207693Y19191D01*
X207759Y19945D01*
X207857Y20765D01*
X208021Y21651D01*
X208251Y22569D01*
X208546Y23553D01*
X208579Y23619D01*
X208644Y23783D01*
X208743Y24078D01*
X208874Y24439D01*
X209071Y24898D01*
X209300Y25390D01*
X209595Y25981D01*
X209924Y26604D01*
X210284Y27293D01*
X210678Y27981D01*
X211137Y28670D01*
X211662Y29392D01*
X212187Y30113D01*
X212777Y30802D01*
X213400Y31458D01*
X214089Y32081D01*
X214122Y32114D01*
X214253Y32213D01*
X214450Y32377D01*
X214745Y32573D01*
X215106Y32836D01*
X215499Y33098D01*
X215991Y33393D01*
X216516Y33689D01*
X217107Y33984D01*
X217730Y34279D01*
X218419Y34541D01*
X219140Y34804D01*
X219895Y35001D01*
X220682Y35165D01*
X221502Y35263D01*
X222322Y35296D01*
X222519D01*
X222748Y35263D01*
D02*
G37*
%LPC*%
G36*
X271215Y304956D02*
X269261D01*
X264421Y290726D01*
X265995D01*
X266258Y290755D01*
X266608Y290784D01*
X267016Y290813D01*
X267453Y290872D01*
X267920Y290930D01*
X268940Y291105D01*
X269990Y291396D01*
X270515Y291571D01*
X271040Y291776D01*
X271507Y292038D01*
X271944Y292301D01*
X271973Y292330D01*
X272031Y292388D01*
X272148Y292475D01*
X272323Y292621D01*
X272498Y292796D01*
X272731Y293000D01*
X272965Y293263D01*
X273227Y293583D01*
X273519Y293933D01*
X273810Y294342D01*
X274102Y294779D01*
X274393Y295275D01*
X274685Y295829D01*
X274977Y296412D01*
X275239Y297054D01*
X275501Y297753D01*
X275531Y297812D01*
X275560Y297928D01*
X275618Y298132D01*
X275706Y298395D01*
X275764Y298716D01*
X275851Y299066D01*
X275939Y299474D01*
X276026Y299911D01*
X276143Y300815D01*
X276201Y301282D01*
Y301748D01*
X276172Y302186D01*
X276085Y302594D01*
X275997Y302973D01*
X275822Y303294D01*
Y303323D01*
X275764Y303352D01*
X275706Y303440D01*
X275618Y303556D01*
X275501Y303673D01*
X275326Y303819D01*
X275122Y303964D01*
X274889Y304139D01*
X274598Y304285D01*
X274277Y304431D01*
X273898Y304577D01*
X273460Y304693D01*
X272994Y304810D01*
X272469Y304898D01*
X271856Y304927D01*
X271215Y304956D01*
D02*
G37*
G36*
X330497Y305422D02*
X330264D01*
X330118Y305393D01*
X329914Y305364D01*
X329681Y305306D01*
X329389Y305247D01*
X329098Y305189D01*
X328456Y304956D01*
X328106Y304781D01*
X327727Y304606D01*
X327348Y304373D01*
X326998Y304110D01*
X326619Y303819D01*
X326240Y303469D01*
X326211Y303440D01*
X326152Y303381D01*
X326065Y303265D01*
X325919Y303119D01*
X325744Y302915D01*
X325569Y302652D01*
X325365Y302361D01*
X325132Y302040D01*
X324869Y301661D01*
X324607Y301223D01*
X324344Y300786D01*
X324082Y300261D01*
X323820Y299736D01*
X323557Y299153D01*
X323295Y298512D01*
X323061Y297841D01*
Y297812D01*
X323003Y297666D01*
X322945Y297491D01*
X322886Y297229D01*
X322799Y296937D01*
X322711Y296558D01*
X322595Y296179D01*
X322507Y295741D01*
X322362Y294837D01*
X322274Y293904D01*
X322245Y293438D01*
X322274Y293000D01*
X322332Y292563D01*
X322420Y292184D01*
Y292155D01*
X322449Y292096D01*
X322478Y292009D01*
X322566Y291892D01*
X322741Y291571D01*
X323032Y291221D01*
X323207Y291047D01*
X323411Y290872D01*
X323645Y290697D01*
X323936Y290551D01*
X324228Y290434D01*
X324578Y290347D01*
X324957Y290288D01*
X325365Y290259D01*
X325598D01*
X325744Y290288D01*
X325948Y290318D01*
X326211Y290376D01*
X326473Y290434D01*
X326765Y290493D01*
X327406Y290726D01*
X327756Y290872D01*
X328135Y291076D01*
X328514Y291280D01*
X328893Y291542D01*
X329243Y291834D01*
X329622Y292184D01*
X329652Y292213D01*
X329710Y292271D01*
X329797Y292388D01*
X329943Y292534D01*
X330118Y292738D01*
X330293Y293000D01*
X330526Y293292D01*
X330760Y293613D01*
X330993Y293992D01*
X331255Y294429D01*
X331518Y294896D01*
X331809Y295391D01*
X332072Y295946D01*
X332334Y296529D01*
X332597Y297170D01*
X332830Y297841D01*
X332859Y297870D01*
X332888Y298016D01*
X332947Y298191D01*
X333005Y298453D01*
X333092Y298745D01*
X333180Y299095D01*
X333297Y299503D01*
X333384Y299911D01*
X333530Y300844D01*
X333617Y301778D01*
Y302215D01*
X333588Y302681D01*
X333530Y303090D01*
X333442Y303469D01*
Y303498D01*
X333413Y303556D01*
X333384Y303644D01*
X333326Y303789D01*
X333122Y304081D01*
X332859Y304460D01*
X332655Y304635D01*
X332451Y304810D01*
X332218Y304956D01*
X331955Y305131D01*
X331634Y305247D01*
X331284Y305335D01*
X330905Y305393D01*
X330497Y305422D01*
D02*
G37*
G36*
X255467Y482121D02*
X253513D01*
X248673Y467891D01*
X250247D01*
X250510Y467920D01*
X250860Y467949D01*
X251268Y467979D01*
X251705Y468037D01*
X252172Y468095D01*
X253192Y468270D01*
X254242Y468562D01*
X254767Y468737D01*
X255292Y468941D01*
X255759Y469203D01*
X256196Y469466D01*
X256225Y469495D01*
X256283Y469553D01*
X256400Y469641D01*
X256575Y469787D01*
X256750Y469962D01*
X256983Y470166D01*
X257217Y470428D01*
X257479Y470749D01*
X257770Y471099D01*
X258062Y471507D01*
X258354Y471944D01*
X258645Y472440D01*
X258937Y472994D01*
X259228Y473577D01*
X259491Y474219D01*
X259753Y474919D01*
X259783Y474977D01*
X259812Y475094D01*
X259870Y475298D01*
X259958Y475560D01*
X260016Y475881D01*
X260103Y476231D01*
X260191Y476639D01*
X260278Y477077D01*
X260395Y477981D01*
X260453Y478447D01*
Y478914D01*
X260424Y479351D01*
X260337Y479759D01*
X260249Y480138D01*
X260074Y480459D01*
Y480488D01*
X260016Y480517D01*
X259958Y480605D01*
X259870Y480722D01*
X259753Y480838D01*
X259578Y480984D01*
X259374Y481130D01*
X259141Y481305D01*
X258849Y481451D01*
X258529Y481596D01*
X258150Y481742D01*
X257712Y481859D01*
X257246Y481976D01*
X256721Y482063D01*
X256108Y482092D01*
X255467Y482121D01*
D02*
G37*
G36*
X314749Y482588D02*
X314516D01*
X314370Y482559D01*
X314166Y482529D01*
X313933Y482471D01*
X313641Y482413D01*
X313350Y482354D01*
X312708Y482121D01*
X312358Y481946D01*
X311979Y481771D01*
X311600Y481538D01*
X311250Y481276D01*
X310871Y480984D01*
X310492Y480634D01*
X310463Y480605D01*
X310404Y480547D01*
X310317Y480430D01*
X310171Y480284D01*
X309996Y480080D01*
X309821Y479818D01*
X309617Y479526D01*
X309384Y479205D01*
X309121Y478826D01*
X308859Y478389D01*
X308596Y477951D01*
X308334Y477426D01*
X308071Y476902D01*
X307809Y476318D01*
X307547Y475677D01*
X307313Y475006D01*
Y474977D01*
X307255Y474831D01*
X307197Y474656D01*
X307138Y474394D01*
X307051Y474102D01*
X306963Y473723D01*
X306847Y473344D01*
X306759Y472907D01*
X306613Y472003D01*
X306526Y471070D01*
X306497Y470603D01*
X306526Y470166D01*
X306584Y469728D01*
X306672Y469349D01*
Y469320D01*
X306701Y469262D01*
X306730Y469174D01*
X306818Y469058D01*
X306993Y468737D01*
X307284Y468387D01*
X307459Y468212D01*
X307663Y468037D01*
X307897Y467862D01*
X308188Y467716D01*
X308480Y467600D01*
X308830Y467512D01*
X309209Y467454D01*
X309617Y467425D01*
X309850D01*
X309996Y467454D01*
X310200Y467483D01*
X310463Y467541D01*
X310725Y467600D01*
X311017Y467658D01*
X311658Y467891D01*
X312008Y468037D01*
X312387Y468241D01*
X312766Y468445D01*
X313145Y468708D01*
X313495Y468999D01*
X313874Y469349D01*
X313903Y469378D01*
X313962Y469437D01*
X314049Y469553D01*
X314195Y469699D01*
X314370Y469903D01*
X314545Y470166D01*
X314778Y470457D01*
X315012Y470778D01*
X315245Y471157D01*
X315507Y471594D01*
X315770Y472061D01*
X316061Y472557D01*
X316324Y473111D01*
X316586Y473694D01*
X316849Y474335D01*
X317082Y475006D01*
X317111Y475035D01*
X317140Y475181D01*
X317199Y475356D01*
X317257Y475619D01*
X317344Y475910D01*
X317432Y476260D01*
X317548Y476668D01*
X317636Y477077D01*
X317782Y478010D01*
X317869Y478943D01*
Y479380D01*
X317840Y479847D01*
X317782Y480255D01*
X317694Y480634D01*
Y480663D01*
X317665Y480722D01*
X317636Y480809D01*
X317578Y480955D01*
X317374Y481247D01*
X317111Y481626D01*
X316907Y481801D01*
X316703Y481976D01*
X316470Y482121D01*
X316207Y482296D01*
X315886Y482413D01*
X315536Y482500D01*
X315157Y482559D01*
X314749Y482588D01*
D02*
G37*
G36*
X154524Y31557D02*
X152327D01*
X146882Y15550D01*
X148653D01*
X148948Y15583D01*
X149342Y15616D01*
X149801Y15649D01*
X150293Y15714D01*
X150818Y15780D01*
X151966Y15977D01*
X153147Y16305D01*
X153737Y16501D01*
X154327Y16731D01*
X154852Y17026D01*
X155344Y17321D01*
X155377Y17354D01*
X155443Y17420D01*
X155574Y17518D01*
X155771Y17682D01*
X155967Y17879D01*
X156230Y18109D01*
X156492Y18404D01*
X156788Y18765D01*
X157115Y19158D01*
X157443Y19617D01*
X157772Y20109D01*
X158099Y20667D01*
X158428Y21290D01*
X158756Y21946D01*
X159051Y22668D01*
X159346Y23455D01*
X159379Y23521D01*
X159412Y23652D01*
X159477Y23881D01*
X159575Y24177D01*
X159641Y24537D01*
X159739Y24931D01*
X159838Y25390D01*
X159936Y25882D01*
X160067Y26899D01*
X160133Y27424D01*
Y27949D01*
X160100Y28441D01*
X160002Y28900D01*
X159904Y29326D01*
X159707Y29687D01*
Y29720D01*
X159641Y29753D01*
X159575Y29851D01*
X159477Y29982D01*
X159346Y30113D01*
X159149Y30277D01*
X158920Y30441D01*
X158657Y30638D01*
X158329Y30802D01*
X157968Y30966D01*
X157542Y31130D01*
X157050Y31261D01*
X156525Y31393D01*
X155935Y31491D01*
X155246Y31524D01*
X154524Y31557D01*
D02*
G37*
G36*
X221207Y32081D02*
X220944D01*
X220780Y32049D01*
X220551Y32016D01*
X220288Y31950D01*
X219960Y31885D01*
X219632Y31819D01*
X218911Y31557D01*
X218517Y31360D01*
X218091Y31163D01*
X217664Y30901D01*
X217271Y30605D01*
X216844Y30277D01*
X216418Y29884D01*
X216385Y29851D01*
X216319Y29785D01*
X216221Y29654D01*
X216057Y29490D01*
X215860Y29261D01*
X215664Y28965D01*
X215434Y28637D01*
X215172Y28277D01*
X214876Y27850D01*
X214581Y27358D01*
X214286Y26866D01*
X213991Y26276D01*
X213696Y25685D01*
X213400Y25029D01*
X213105Y24308D01*
X212843Y23553D01*
Y23521D01*
X212777Y23357D01*
X212712Y23160D01*
X212646Y22865D01*
X212547Y22537D01*
X212449Y22110D01*
X212318Y21684D01*
X212220Y21192D01*
X212055Y20175D01*
X211957Y19125D01*
X211924Y18601D01*
X211957Y18109D01*
X212023Y17617D01*
X212121Y17190D01*
Y17157D01*
X212154Y17092D01*
X212187Y16993D01*
X212285Y16862D01*
X212482Y16501D01*
X212810Y16108D01*
X213007Y15911D01*
X213236Y15714D01*
X213499Y15517D01*
X213827Y15353D01*
X214155Y15222D01*
X214548Y15124D01*
X214975Y15058D01*
X215434Y15025D01*
X215696D01*
X215860Y15058D01*
X216090Y15091D01*
X216385Y15157D01*
X216680Y15222D01*
X217008Y15288D01*
X217730Y15550D01*
X218124Y15714D01*
X218550Y15944D01*
X218976Y16173D01*
X219403Y16469D01*
X219796Y16797D01*
X220223Y17190D01*
X220255Y17223D01*
X220321Y17289D01*
X220420Y17420D01*
X220584Y17584D01*
X220780Y17813D01*
X220977Y18109D01*
X221239Y18437D01*
X221502Y18797D01*
X221764Y19224D01*
X222059Y19716D01*
X222355Y20241D01*
X222683Y20798D01*
X222978Y21421D01*
X223273Y22077D01*
X223568Y22799D01*
X223831Y23553D01*
X223864Y23586D01*
X223896Y23750D01*
X223962Y23947D01*
X224027Y24242D01*
X224126Y24570D01*
X224224Y24964D01*
X224356Y25423D01*
X224454Y25882D01*
X224618Y26932D01*
X224716Y27981D01*
Y28473D01*
X224683Y28998D01*
X224618Y29457D01*
X224519Y29884D01*
Y29917D01*
X224487Y29982D01*
X224454Y30081D01*
X224388Y30245D01*
X224159Y30573D01*
X223864Y30999D01*
X223634Y31196D01*
X223404Y31393D01*
X223142Y31557D01*
X222847Y31753D01*
X222486Y31885D01*
X222092Y31983D01*
X221666Y32049D01*
X221207Y32081D01*
D02*
G37*
%LPD*%
D10*
X59680Y442534D02*
G03*
X59080Y441934I0J-600D01*
G01*
Y436019D02*
G03*
X59680Y435419I600J0D01*
G01*
X74542Y441934D02*
G03*
X73942Y442534I-600J0D01*
G01*
Y435419D02*
G03*
X74542Y436019I0J600D01*
G01*
X100290Y450044D02*
G03*
X99690Y450644I-600J0D01*
G01*
X93775D02*
G03*
X93175Y450044I0J-600D01*
G01*
X99690Y435183D02*
G03*
X100290Y435783I0J600D01*
G01*
X93175D02*
G03*
X93775Y435183I600J0D01*
G01*
X127446Y306275D02*
G03*
X127446Y300025I0J-3125D01*
G01*
X231009Y119242D02*
G03*
X231009Y113041I0J-3100D01*
G01*
X59080Y436019D02*
Y441934D01*
X59680Y435419D02*
X65232D01*
X59680Y442534D02*
X65232D01*
X74542Y436019D02*
Y441934D01*
X68391Y435419D02*
X73942D01*
X68391Y442534D02*
X73942D01*
X88375Y425788D02*
X92898D01*
Y436230D01*
X74581Y425788D02*
X79104D01*
X74581D02*
Y436230D01*
X93775Y450644D02*
X99690D01*
X93175Y444493D02*
Y450044D01*
X100290Y444493D02*
Y450044D01*
X93775Y435183D02*
X99690D01*
X93175Y435783D02*
Y441334D01*
X100290Y435783D02*
Y441334D01*
X89090Y313657D02*
X127446D01*
X89090Y292642D02*
Y313657D01*
Y292642D02*
X127446D01*
Y313657D01*
X231009Y105290D02*
Y113041D01*
X194188Y105290D02*
X231009D01*
X194188D02*
Y126994D01*
X231009D01*
Y119242D02*
Y126994D01*
X63424Y94800D02*
X61424D01*
X119741Y73246D02*
X118991Y73996D01*
X117491D01*
X116742Y73246D01*
Y70247D01*
X117491Y69498D01*
X118991D01*
X119741Y70247D01*
X121240Y69498D02*
X122740D01*
X121990D01*
Y73996D01*
X121240Y73246D01*
X267379Y59467D02*
X266629Y60217D01*
X265129D01*
X264380Y59467D01*
Y56468D01*
X265129Y55718D01*
X266629D01*
X267379Y56468D01*
X271877Y55718D02*
X268878D01*
X271877Y58717D01*
Y59467D01*
X271127Y60217D01*
X269628D01*
X268878Y59467D01*
X118756Y109664D02*
X118007Y110414D01*
X116507D01*
X115758Y109664D01*
Y106665D01*
X116507Y105915D01*
X118007D01*
X118756Y106665D01*
X120256Y109664D02*
X121006Y110414D01*
X122505D01*
X123255Y109664D01*
Y108914D01*
X122505Y108164D01*
X121756D01*
X122505D01*
X123255Y107414D01*
Y106665D01*
X122505Y105915D01*
X121006D01*
X120256Y106665D01*
X233914Y163798D02*
X233164Y164547D01*
X231665D01*
X230915Y163798D01*
Y160799D01*
X231665Y160049D01*
X233164D01*
X233914Y160799D01*
X237663Y160049D02*
Y164547D01*
X235414Y162298D01*
X238412D01*
X114170Y244304D02*
X114920Y243554D01*
X116419D01*
X117169Y244304D01*
Y247303D01*
X116419Y248053D01*
X114920D01*
X114170Y247303D01*
X109672Y243554D02*
X112671D01*
Y245803D01*
X111171Y245054D01*
X110422D01*
X109672Y245803D01*
Y247303D01*
X110422Y248053D01*
X111921D01*
X112671Y247303D01*
X83127Y305924D02*
X82377Y306673D01*
X80877D01*
X80128Y305924D01*
Y302925D01*
X80877Y302175D01*
X82377D01*
X83127Y302925D01*
X87625Y306673D02*
X86126Y305924D01*
X84626Y304424D01*
Y302925D01*
X85376Y302175D01*
X86875D01*
X87625Y302925D01*
Y303674D01*
X86875Y304424D01*
X84626D01*
X65410Y428365D02*
X64660Y429114D01*
X63161D01*
X62411Y428365D01*
Y425365D01*
X63161Y424616D01*
X64660D01*
X65410Y425365D01*
X66910Y429114D02*
X69909D01*
Y428365D01*
X66910Y425365D01*
Y424616D01*
X98087Y430727D02*
X97338Y431476D01*
X95838D01*
X95088Y430727D01*
Y427728D01*
X95838Y426978D01*
X97338D01*
X98087Y427728D01*
X99587Y430727D02*
X100337Y431476D01*
X101836D01*
X102586Y430727D01*
Y429977D01*
X101836Y429227D01*
X102586Y428477D01*
Y427728D01*
X101836Y426978D01*
X100337D01*
X99587Y427728D01*
Y428477D01*
X100337Y429227D01*
X99587Y429977D01*
Y430727D01*
X100337Y429227D02*
X101836D01*
X245285Y102146D02*
Y97647D01*
X247534D01*
X248284Y98397D01*
Y101396D01*
X247534Y102146D01*
X245285D01*
X249784Y97647D02*
X251283D01*
X250533D01*
Y102146D01*
X249784Y101396D01*
X181690Y409488D02*
Y404990D01*
X183939D01*
X184689Y405739D01*
Y408739D01*
X183939Y409488D01*
X181690D01*
X189187Y404990D02*
X186188D01*
X189187Y407989D01*
Y408739D01*
X188438Y409488D01*
X186938D01*
X186188Y408739D01*
X209655Y431870D02*
Y427372D01*
Y428871D01*
X212654Y431870D01*
X210405Y429621D01*
X212654Y427372D01*
X214154D02*
X215653D01*
X214903D01*
Y431870D01*
X214154Y431120D01*
X346790Y110157D02*
Y105658D01*
X349789D01*
X354287Y110157D02*
X351288D01*
Y105658D01*
X354287D01*
X351288Y107907D02*
X352788D01*
X355787Y110157D02*
Y105658D01*
X358036D01*
X358786Y106408D01*
Y109407D01*
X358036Y110157D01*
X355787D01*
X360285Y105658D02*
X361785D01*
X361035D01*
Y110157D01*
X360285Y109407D01*
X223041Y244587D02*
Y240088D01*
X226040D01*
X230539Y244587D02*
X227539D01*
Y240088D01*
X230539D01*
X227539Y242337D02*
X229039D01*
X232038Y244587D02*
Y240088D01*
X234287D01*
X235037Y240838D01*
Y243837D01*
X234287Y244587D01*
X232038D01*
X239536Y240088D02*
X236537D01*
X239536Y243087D01*
Y243837D01*
X238786Y244587D01*
X237286D01*
X236537Y243837D01*
X222499Y273269D02*
Y268771D01*
X225498D01*
X229997Y273269D02*
X226998D01*
Y268771D01*
X229997D01*
X226998Y271020D02*
X228497D01*
X231496Y273269D02*
Y268771D01*
X233746D01*
X234495Y269521D01*
Y272520D01*
X233746Y273269D01*
X231496D01*
X235995Y272520D02*
X236745Y273269D01*
X238244D01*
X238994Y272520D01*
Y271770D01*
X238244Y271020D01*
X237494D01*
X238244D01*
X238994Y270270D01*
Y269521D01*
X238244Y268771D01*
X236745D01*
X235995Y269521D01*
X61790Y79590D02*
Y84088D01*
X63289Y82589D01*
X64789Y84088D01*
Y79590D01*
X66288Y84088D02*
X67788D01*
X67038D01*
Y79590D01*
X66288D01*
X67788D01*
X73036Y83338D02*
X72286Y84088D01*
X70787D01*
X70037Y83338D01*
Y80339D01*
X70787Y79590D01*
X72286D01*
X73036Y80339D01*
X74536Y79590D02*
X76035D01*
X75285D01*
Y84088D01*
X74536Y83338D01*
X194859Y41980D02*
Y46478D01*
X197108D01*
X197858Y45728D01*
Y44229D01*
X197108Y43479D01*
X194859D01*
X199358Y41980D02*
X200857D01*
X200107D01*
Y46478D01*
X199358Y45728D01*
X35590Y41990D02*
Y46488D01*
X37839D01*
X38589Y45739D01*
Y44239D01*
X37839Y43489D01*
X35590D01*
X43087Y41990D02*
X40088D01*
X43087Y44989D01*
Y45739D01*
X42338Y46488D01*
X40838D01*
X40088Y45739D01*
X35590Y160090D02*
Y164588D01*
X37839D01*
X38589Y163839D01*
Y162339D01*
X37839Y161589D01*
X35590D01*
X40088Y163839D02*
X40838Y164588D01*
X42338D01*
X43087Y163839D01*
Y163089D01*
X42338Y162339D01*
X41588D01*
X42338D01*
X43087Y161589D01*
Y160839D01*
X42338Y160090D01*
X40838D01*
X40088Y160839D01*
X35590Y329353D02*
Y333851D01*
X37839D01*
X38589Y333102D01*
Y331602D01*
X37839Y330852D01*
X35590D01*
X42338Y329353D02*
Y333851D01*
X40088Y331602D01*
X43087D01*
X35590Y226953D02*
Y231451D01*
X37839D01*
X38589Y230701D01*
Y229202D01*
X37839Y228452D01*
X35590D01*
X43087Y231451D02*
X40088D01*
Y229202D01*
X41588Y229952D01*
X42338D01*
X43087Y229202D01*
Y227702D01*
X42338Y226953D01*
X40838D01*
X40088Y227702D01*
X163569Y329353D02*
Y333851D01*
X165819D01*
X166568Y333102D01*
Y331602D01*
X165819Y330852D01*
X163569D01*
X171067Y333851D02*
X169567Y333102D01*
X168068Y331602D01*
Y330102D01*
X168818Y329353D01*
X170317D01*
X171067Y330102D01*
Y330852D01*
X170317Y331602D01*
X168068D01*
X145050Y226953D02*
Y231451D01*
X147300D01*
X148049Y230701D01*
Y229202D01*
X147300Y228452D01*
X145050D01*
X149549Y231451D02*
X152548D01*
Y230701D01*
X149549Y227702D01*
Y226953D01*
X222590Y399790D02*
Y404288D01*
X224839D01*
X225589Y403539D01*
Y402039D01*
X224839Y401289D01*
X222590D01*
X227088Y403539D02*
X227838Y404288D01*
X229338D01*
X230087Y403539D01*
Y402789D01*
X229338Y402039D01*
X230087Y401289D01*
Y400539D01*
X229338Y399790D01*
X227838D01*
X227088Y400539D01*
Y401289D01*
X227838Y402039D01*
X227088Y402789D01*
Y403539D01*
X227838Y402039D02*
X229338D01*
X35590Y494690D02*
Y499188D01*
X37839D01*
X38589Y498439D01*
Y496939D01*
X37839Y496189D01*
X35590D01*
X40088Y495439D02*
X40838Y494690D01*
X42338D01*
X43087Y495439D01*
Y498439D01*
X42338Y499188D01*
X40838D01*
X40088Y498439D01*
Y497689D01*
X40838Y496939D01*
X43087D01*
X33790Y388390D02*
Y392888D01*
X36039D01*
X36789Y392139D01*
Y390639D01*
X36039Y389889D01*
X33790D01*
X38288Y388390D02*
X39788D01*
X39038D01*
Y392888D01*
X38288Y392139D01*
X42037D02*
X42787Y392888D01*
X44286D01*
X45036Y392139D01*
Y389140D01*
X44286Y388390D01*
X42787D01*
X42037Y389140D01*
Y392139D01*
X165016Y300956D02*
Y303955D01*
X164267Y304705D01*
X162767D01*
X162017Y303955D01*
Y300956D01*
X162767Y300206D01*
X164267D01*
X163517Y301706D02*
X165016Y300206D01*
X164267D02*
X165016Y300956D01*
X166516Y300206D02*
X168015D01*
X167266D01*
Y304705D01*
X166516Y303955D01*
X196119Y278515D02*
Y281514D01*
X195369Y282264D01*
X193869D01*
X193120Y281514D01*
Y278515D01*
X193869Y277765D01*
X195369D01*
X194619Y279265D02*
X196119Y277765D01*
X195369D02*
X196119Y278515D01*
X200617Y277765D02*
X197618D01*
X200617Y280764D01*
Y281514D01*
X199867Y282264D01*
X198368D01*
X197618Y281514D01*
X122497Y456862D02*
Y459861D01*
X121747Y460610D01*
X120247D01*
X119498Y459861D01*
Y456862D01*
X120247Y456112D01*
X121747D01*
X120997Y457611D02*
X122497Y456112D01*
X121747D02*
X122497Y456862D01*
X123996Y459861D02*
X124746Y460610D01*
X126245D01*
X126995Y459861D01*
Y459111D01*
X126245Y458361D01*
X125496D01*
X126245D01*
X126995Y457611D01*
Y456862D01*
X126245Y456112D01*
X124746D01*
X123996Y456862D01*
X110292Y417491D02*
Y420491D01*
X109542Y421240D01*
X108043D01*
X107293Y420491D01*
Y417491D01*
X108043Y416742D01*
X109542D01*
X108792Y418241D02*
X110292Y416742D01*
X109542D02*
X110292Y417491D01*
X114041Y416742D02*
Y421240D01*
X111792Y418991D01*
X114790D01*
X67890Y129390D02*
Y133888D01*
X70139D01*
X70889Y133139D01*
Y131639D01*
X70139Y130889D01*
X67890D01*
X69389D02*
X70889Y129390D01*
X72388D02*
X73888D01*
X73138D01*
Y133888D01*
X72388Y133139D01*
X160049Y114773D02*
Y119272D01*
X162298D01*
X163048Y118522D01*
Y117023D01*
X162298Y116273D01*
X160049D01*
X161548D02*
X163048Y114773D01*
X167546D02*
X164547D01*
X167546Y117772D01*
Y118522D01*
X166797Y119272D01*
X165297D01*
X164547Y118522D01*
X150206Y54734D02*
Y59232D01*
X152456D01*
X153205Y58483D01*
Y56983D01*
X152456Y56233D01*
X150206D01*
X151706D02*
X153205Y54734D01*
X154705Y58483D02*
X155455Y59232D01*
X156954D01*
X157704Y58483D01*
Y57733D01*
X156954Y56983D01*
X156204D01*
X156954D01*
X157704Y56233D01*
Y55484D01*
X156954Y54734D01*
X155455D01*
X154705Y55484D01*
X183671Y89183D02*
Y93681D01*
X185920D01*
X186670Y92931D01*
Y91432D01*
X185920Y90682D01*
X183671D01*
X185170D02*
X186670Y89183D01*
X190419D02*
Y93681D01*
X188169Y91432D01*
X191168D01*
X230915Y66545D02*
Y71043D01*
X233164D01*
X233914Y70294D01*
Y68794D01*
X233164Y68044D01*
X230915D01*
X232415D02*
X233914Y66545D01*
X238412Y71043D02*
X235414D01*
Y68794D01*
X236913Y69544D01*
X237663D01*
X238412Y68794D01*
Y67295D01*
X237663Y66545D01*
X236163D01*
X235414Y67295D01*
X214183Y66545D02*
Y71043D01*
X216432D01*
X217182Y70294D01*
Y68794D01*
X216432Y68044D01*
X214183D01*
X215682D02*
X217182Y66545D01*
X221680Y71043D02*
X220181Y70294D01*
X218681Y68794D01*
Y67295D01*
X219431Y66545D01*
X220931D01*
X221680Y67295D01*
Y68044D01*
X220931Y68794D01*
X218681D01*
X244694Y140364D02*
Y144862D01*
X246944D01*
X247693Y144113D01*
Y142613D01*
X246944Y141863D01*
X244694D01*
X246194D02*
X247693Y140364D01*
X249193Y144862D02*
X252192D01*
Y144113D01*
X249193Y141113D01*
Y140364D01*
X276753Y104858D02*
Y109357D01*
X279002D01*
X279752Y108607D01*
Y107107D01*
X279002Y106358D01*
X276753D01*
X278252D02*
X279752Y104858D01*
X281251Y108607D02*
X282001Y109357D01*
X283501D01*
X284250Y108607D01*
Y107857D01*
X283501Y107107D01*
X284250Y106358D01*
Y105608D01*
X283501Y104858D01*
X282001D01*
X281251Y105608D01*
Y106358D01*
X282001Y107107D01*
X281251Y107857D01*
Y108607D01*
X282001Y107107D02*
X283501D01*
X131702Y317923D02*
Y322421D01*
X133952D01*
X134701Y321672D01*
Y320172D01*
X133952Y319422D01*
X131702D01*
X133202D02*
X134701Y317923D01*
X136201D02*
X137700D01*
X136951D01*
Y322421D01*
X136201Y321672D01*
X139950D02*
X140700Y322421D01*
X142199D01*
X142949Y321672D01*
Y318673D01*
X142199Y317923D01*
X140700D01*
X139950Y318673D01*
Y321672D01*
X88395Y339183D02*
Y343681D01*
X90645D01*
X91394Y342932D01*
Y341432D01*
X90645Y340682D01*
X88395D01*
X89895D02*
X91394Y339183D01*
X92894D02*
X94393D01*
X93644D01*
Y343681D01*
X92894Y342932D01*
X96643Y339183D02*
X98142D01*
X97392D01*
Y343681D01*
X96643Y342932D01*
X132096Y266742D02*
Y271240D01*
X134345D01*
X135095Y270491D01*
Y268991D01*
X134345Y268241D01*
X132096D01*
X133596D02*
X135095Y266742D01*
X136595D02*
X138094D01*
X137344D01*
Y271240D01*
X136595Y270491D01*
X143342Y266742D02*
X140343D01*
X143342Y269741D01*
Y270491D01*
X142593Y271240D01*
X141093D01*
X140343Y270491D01*
X172647Y240364D02*
Y244862D01*
X174897D01*
X175646Y244113D01*
Y242613D01*
X174897Y241863D01*
X172647D01*
X174147D02*
X175646Y240364D01*
X177146D02*
X178645D01*
X177896D01*
Y244862D01*
X177146Y244113D01*
X180895D02*
X181644Y244862D01*
X183144D01*
X183894Y244113D01*
Y243363D01*
X183144Y242613D01*
X182394D01*
X183144D01*
X183894Y241863D01*
Y241113D01*
X183144Y240364D01*
X181644D01*
X180895Y241113D01*
X208474Y310836D02*
Y315335D01*
X210723D01*
X211473Y314585D01*
Y313086D01*
X210723Y312336D01*
X208474D01*
X209974D02*
X211473Y310836D01*
X212973D02*
X214472D01*
X213722D01*
Y315335D01*
X212973Y314585D01*
X218971Y310836D02*
Y315335D01*
X216721Y313086D01*
X219720D01*
X63198Y265954D02*
Y270453D01*
X65448D01*
X66198Y269703D01*
Y268204D01*
X65448Y267454D01*
X63198D01*
X64698D02*
X66198Y265954D01*
X67697Y266704D02*
X68447Y265954D01*
X69946D01*
X70696Y266704D01*
Y269703D01*
X69946Y270453D01*
X68447D01*
X67697Y269703D01*
Y268953D01*
X68447Y268204D01*
X70696D01*
X104990Y478290D02*
Y482788D01*
X107239D01*
X107989Y482039D01*
Y480539D01*
X107239Y479789D01*
X104990D01*
X106489D02*
X107989Y478290D01*
X109488D02*
X110988D01*
X110238D01*
Y482788D01*
X109488Y482039D01*
X116236Y482788D02*
X113237D01*
Y480539D01*
X114737Y481289D01*
X115486D01*
X116236Y480539D01*
Y479039D01*
X115486Y478290D01*
X113987D01*
X113237Y479039D01*
X79340Y418484D02*
Y414736D01*
X80090Y413986D01*
X81589D01*
X82339Y414736D01*
Y418484D01*
X83839Y417735D02*
X84588Y418484D01*
X86088D01*
X86838Y417735D01*
Y416985D01*
X86088Y416235D01*
X85338D01*
X86088D01*
X86838Y415485D01*
Y414736D01*
X86088Y413986D01*
X84588D01*
X83839Y414736D01*
X258080Y407855D02*
Y404106D01*
X258830Y403356D01*
X260330D01*
X261079Y404106D01*
Y407855D01*
X264828Y403356D02*
Y407855D01*
X262579Y405605D01*
X265578D01*
X246269Y117697D02*
Y113948D01*
X247019Y113198D01*
X248519D01*
X249268Y113948D01*
Y117697D01*
X250768Y113198D02*
X252267D01*
X251518D01*
Y117697D01*
X250768Y116947D01*
X130521Y298406D02*
Y294657D01*
X131271Y293907D01*
X132771D01*
X133520Y294657D01*
Y298406D01*
X138019Y293907D02*
X135020D01*
X138019Y296906D01*
Y297656D01*
X137269Y298406D01*
X135770D01*
X135020Y297656D01*
D11*
X109784Y454567D02*
G03*
X109784Y454567I-689J0D01*
G01*
X48870Y405512D02*
G03*
X48870Y405512I-9500J0D01*
G01*
Y511811D02*
G03*
X48870Y511811I-9500J0D01*
G01*
X235878Y416929D02*
G03*
X235878Y416929I-9500J0D01*
G01*
X225662Y266266D02*
G03*
X236542Y266266I5440J-8671D01*
G01*
X172599Y321038D02*
G03*
X172790Y304049I4960J-8440D01*
G01*
X201810Y290379D02*
G03*
X201620Y307368I-4960J8440D01*
G01*
X83569Y288425D02*
G03*
X83569Y288425I-14173J0D01*
G01*
X158319Y244094D02*
G03*
X158319Y244094I-9500J0D01*
G01*
X176823Y346457D02*
G03*
X176823Y346457I-9500J0D01*
G01*
X48870Y244094D02*
G03*
X48870Y244094I-9500J0D01*
G01*
Y346457D02*
G03*
X48870Y346457I-9500J0D01*
G01*
X236149Y276489D02*
G03*
X225269Y276489I-5440J8671D01*
G01*
X48870Y177165D02*
G03*
X48870Y177165I-9500J0D01*
G01*
Y59055D02*
G03*
X48870Y59055I-9500J0D01*
G01*
X207335D02*
G03*
X207335Y59055I-9500J0D01*
G01*
X88024Y106299D02*
G03*
X88024Y106299I-19100J0D01*
G01*
X359771Y113379D02*
G03*
X348891Y113379I-5440J8671D01*
G01*
X268608Y411386D02*
Y413858D01*
Y411386D02*
X272705D01*
Y413858D01*
X254942Y414173D02*
Y453543D01*
X270868Y414173D02*
Y453543D01*
X247638Y414173D02*
Y453543D01*
X277953D01*
X247638Y414173D02*
X277953D01*
Y453543D01*
X180433Y440874D02*
X191933D01*
Y444874D01*
X180433D02*
X191933D01*
X180433Y440874D02*
Y444874D01*
X207083Y426378D02*
Y488189D01*
X163776D02*
X207083D01*
X163775Y426383D02*
Y488194D01*
Y426383D02*
X207082D01*
X175433Y482874D02*
X195433D01*
X185388Y437874D02*
Y482874D01*
X189433Y432874D02*
X195433D01*
X174933D02*
X180433D01*
X185388Y437874D02*
X188433Y430374D01*
X192433Y442874D02*
X195933D01*
X174933D02*
X179933D01*
X106260Y452481D02*
X116929D01*
X106260Y424646D02*
Y452481D01*
Y424646D02*
X116929D01*
Y452481D01*
X114921Y424646D02*
Y452205D01*
X123153Y467382D02*
X125590D01*
X94095D02*
X96531D01*
X94095Y462598D02*
X125590D01*
Y475197D01*
X94095Y462598D02*
Y475197D01*
X125590D01*
X80130Y485869D02*
X141130D01*
Y505469D01*
X80130D02*
X141130D01*
X80130Y485869D02*
Y505469D01*
X180470Y412598D02*
Y421260D01*
X194095Y412598D02*
Y421260D01*
X176772Y412598D02*
Y421260D01*
Y412598D02*
X194095D01*
X176772Y421260D02*
X194095D01*
X225984Y266378D02*
X236220D01*
X182259Y260041D02*
Y284841D01*
X172859D02*
X182259D01*
X172859Y260041D02*
Y284841D01*
Y260041D02*
X182259D01*
X183464Y304803D02*
Y320393D01*
X190945Y291024D02*
Y306614D01*
X198230Y326747D02*
X223030D01*
X198230Y317347D02*
Y326747D01*
Y317347D02*
X223030D01*
Y326747D01*
X110828Y346039D02*
X135628D01*
X110828Y336639D02*
Y346039D01*
Y336639D02*
X135628D01*
Y346039D01*
X110828Y324828D02*
X135628D01*
Y334228D01*
X110828D02*
X135628D01*
X110828Y324828D02*
Y334228D01*
Y282653D02*
X135628D01*
X110828Y273253D02*
Y282653D01*
Y273253D02*
X135628D01*
Y282653D01*
X67719Y298031D02*
X73625D01*
X67719Y277953D02*
Y298031D01*
Y277953D02*
X73625D01*
Y298031D01*
X59452Y272835D02*
X77169D01*
X85042Y280708D01*
Y296456D01*
X77561Y303937D02*
X85042Y296456D01*
X54334Y303937D02*
X77561D01*
X54334Y272835D02*
Y303937D01*
Y272835D02*
X59452D01*
X225590Y276378D02*
X235827D01*
X273804Y74820D02*
Y77970D01*
X272229Y76395D02*
X275379D01*
X214962Y83440D02*
X239762D01*
X214962Y74040D02*
Y83440D01*
Y74040D02*
X239762D01*
Y83440D01*
X214962Y85851D02*
X239762D01*
Y95251D01*
X214962D02*
X239762D01*
X214962Y85851D02*
Y95251D01*
X233465Y120711D02*
X242126D01*
X233465Y107087D02*
X242126D01*
X233465Y124409D02*
X242126D01*
X233465Y107087D02*
Y124409D01*
X242126Y107087D02*
Y124409D01*
X205120Y137032D02*
X229920D01*
Y146432D01*
X205120D02*
X229920D01*
X205120Y137032D02*
Y146432D01*
X218521Y156314D02*
X221670D01*
X220096Y154739D02*
Y157889D01*
X182308Y108663D02*
Y133463D01*
Y108663D02*
X191708D01*
Y133463D01*
X182308D02*
X191708D01*
X158243Y76183D02*
Y100983D01*
X148843D02*
X158243D01*
X148843Y76183D02*
Y100983D01*
Y76183D02*
X158243D01*
Y131301D02*
Y156101D01*
X148843D02*
X158243D01*
X148843Y131301D02*
Y156101D01*
Y131301D02*
X158243D01*
X120096Y117928D02*
X123245D01*
X121670Y116354D02*
Y119503D01*
X114944Y93686D02*
X118093D01*
X116519Y92111D02*
Y95261D01*
X268112Y112426D02*
X292912D01*
Y121826D01*
X268112D02*
X292912D01*
X268112Y112426D02*
Y121826D01*
X58466Y137032D02*
X83266D01*
Y146432D01*
X58466D02*
X83266D01*
X58466Y137032D02*
Y146432D01*
X349213Y113268D02*
X359449D01*
D12*
X128359Y318150D02*
G03*
X128359Y318150I-591J0D01*
G01*
X277560Y73819D02*
G03*
X277560Y73819I-9843J0D01*
G01*
X232358Y130697D02*
G03*
X232358Y130697I-591J0D01*
G01*
X227363Y162401D02*
G03*
X227363Y162401I-9843J0D01*
G01*
X128938Y124016D02*
G03*
X128938Y124016I-9843J0D01*
G01*
X128937Y87599D02*
G03*
X128937Y87599I-9843J0D01*
G01*
D13*
X57071Y308110D02*
Y318110D01*
Y308110D02*
X89071D01*
Y328110D01*
X57071D02*
X89071D01*
X57071Y318110D02*
Y328110D01*
X97386Y251024D02*
Y261024D01*
Y251024D02*
X129386D01*
Y271024D01*
X97386D02*
X129386D01*
X97386Y261024D02*
Y271024D01*
M02*
