G04*
G04 #@! TF.GenerationSoftware,Altium Limited,Altium Designer,20.0.13 (296)*
G04*
G04 Layer_Physical_Order=1*
G04 Layer_Color=255*
%FSLAX25Y25*%
%MOIN*%
G70*
G01*
G75*
%ADD14R,0.05551X0.05315*%
%ADD15R,0.02646X0.06201*%
%ADD16R,0.05315X0.05551*%
%ADD38C,0.07400*%
%ADD42C,0.03150*%
%ADD43C,0.03937*%
%ADD44C,0.08661*%
%ADD45C,0.06800*%
%ADD46R,0.07874X0.06299*%
%ADD47O,0.07874X0.06299*%
%ADD48C,0.07480*%
%ADD49R,0.07480X0.07480*%
%ADD50C,0.15748*%
%ADD51C,0.06299*%
%ADD52C,0.06500*%
%ADD53R,0.07087X0.07087*%
%ADD54C,0.07087*%
%ADD55O,0.05748X0.07185*%
%ADD56C,0.08268*%
%ADD57C,0.07000*%
%ADD58C,0.05118*%
%ADD59O,0.05197X0.06496*%
%ADD60C,0.06600*%
%ADD61R,0.06600X0.06600*%
%ADD62P,0.17046X8X22.5*%
%ADD63C,0.03150*%
G36*
X79965Y424476D02*
Y431776D01*
X79970Y431951D01*
X79982Y432126D01*
X80002Y432300D01*
X80031Y432473D01*
X80068Y432645D01*
X80112Y432814D01*
X80165Y432981D01*
X80225Y433146D01*
X80294Y433308D01*
X80369Y433466D01*
X80452Y433620D01*
X80542Y433771D01*
X80639Y433917D01*
X80743Y434058D01*
X80853Y434195D01*
X80970Y434326D01*
X81092Y434451D01*
X81220Y434571D01*
X81354Y434684D01*
X81493Y434791D01*
X81637Y434892D01*
X81785Y434985D01*
X81938Y435072D01*
X82094Y435151D01*
X82406Y435223D01*
Y441905D01*
X85005D01*
Y435223D01*
X85317Y435151D01*
X85473Y435072D01*
X85626Y434985D01*
X85774Y434892D01*
X85918Y434791D01*
X86057Y434684D01*
X86191Y434571D01*
X86319Y434451D01*
X86441Y434326D01*
X86558Y434195D01*
X86668Y434058D01*
X86772Y433917D01*
X86869Y433771D01*
X86959Y433620D01*
X87042Y433466D01*
X87117Y433308D01*
X87186Y433146D01*
X87246Y432981D01*
X87299Y432814D01*
X87343Y432645D01*
X87380Y432473D01*
X87409Y432300D01*
X87429Y432126D01*
X87441Y431951D01*
X87446Y431776D01*
Y424476D01*
X87441Y424300D01*
X87429Y424125D01*
X87409Y423951D01*
X87380Y423778D01*
X87343Y423607D01*
X87299Y423437D01*
X87246Y423270D01*
X87186Y423105D01*
X87117Y422944D01*
X87042Y422785D01*
X86959Y422631D01*
X86869Y422480D01*
X86772Y422334D01*
X86668Y422193D01*
X86558Y422057D01*
X86441Y421925D01*
X86319Y421800D01*
X86191Y421680D01*
X86057Y421567D01*
X85918Y421460D01*
X85774Y421360D01*
X85626Y421266D01*
X85473Y421180D01*
X85317Y421100D01*
X85157Y421029D01*
X84994Y420964D01*
X84828Y420908D01*
X84659Y420859D01*
X84489Y420818D01*
X84317Y420786D01*
X84143Y420761D01*
X83968Y420745D01*
X83793Y420737D01*
X83618D01*
X83443Y420745D01*
X83268Y420761D01*
X83094Y420786D01*
X82922Y420818D01*
X82752Y420859D01*
X82583Y420908D01*
X82417Y420964D01*
X82254Y421029D01*
X82094Y421100D01*
X81938Y421180D01*
X81785Y421266D01*
X81637Y421360D01*
X81493Y421460D01*
X81354Y421567D01*
X81220Y421680D01*
X81092Y421800D01*
X80970Y421925D01*
X80853Y422057D01*
X80743Y422193D01*
X80639Y422334D01*
X80542Y422480D01*
X80452Y422631D01*
X80369Y422785D01*
X80294Y422944D01*
X80225Y423105D01*
X80165Y423270D01*
X80112Y423437D01*
X80068Y423607D01*
X80031Y423778D01*
X80002Y423951D01*
X79982Y424125D01*
X79970Y424300D01*
X79965Y424476D01*
D02*
G37*
D14*
X62756Y438976D02*
D03*
X70866D02*
D03*
D15*
X77834Y438804D02*
D03*
X89645D02*
D03*
D16*
X96732Y446969D02*
D03*
Y438858D02*
D03*
D38*
X150630Y495669D02*
D03*
X70630D02*
D03*
X177559Y292441D02*
D03*
Y252441D02*
D03*
X190630Y322047D02*
D03*
X230630D02*
D03*
X103228Y341339D02*
D03*
X143228D02*
D03*
Y329528D02*
D03*
X103228D02*
D03*
Y277953D02*
D03*
X143228D02*
D03*
X207362Y78740D02*
D03*
X247362D02*
D03*
Y90551D02*
D03*
X207362D02*
D03*
X237520Y141732D02*
D03*
X197520D02*
D03*
X187008Y101063D02*
D03*
Y141063D02*
D03*
X153543Y108583D02*
D03*
Y68583D02*
D03*
Y163701D02*
D03*
Y123701D02*
D03*
X300512Y117126D02*
D03*
X260512D02*
D03*
X90866Y141732D02*
D03*
X50866D02*
D03*
D42*
X156299Y429528D02*
Y435827D01*
X163096Y442624D02*
X170378D01*
X156299Y435827D02*
X163096Y442624D01*
X131890Y495669D02*
X150630D01*
X118898Y482677D02*
X131890Y495669D01*
X118898Y467323D02*
Y482677D01*
X170378Y442624D02*
X170433Y442679D01*
X109843Y429528D02*
X156299D01*
X168898Y416929D02*
X169291D01*
X156299Y429528D02*
X168898Y416929D01*
X109843Y447638D02*
Y467323D01*
X96705Y438831D02*
X96816Y438721D01*
X109705D02*
X109843Y438583D01*
X96816Y438721D02*
X109705D01*
X89645Y438804D02*
X89672Y438831D01*
X96705D01*
X70866Y438976D02*
X70952Y438890D01*
X77748D01*
X77834Y438804D01*
X96457Y447244D02*
X96732Y446969D01*
X89370Y447244D02*
X96457D01*
X96732Y446969D02*
X96850Y447087D01*
Y453937D01*
X77165Y428346D02*
X90551D01*
X62756Y432441D02*
Y438976D01*
X62598Y432283D02*
X62756Y432441D01*
X55512Y438976D02*
X62756D01*
X60822Y299008D02*
X70662D01*
X83071Y311417D02*
Y318110D01*
X70662Y299008D02*
X83071Y311417D01*
X59843Y298029D02*
X60822Y299008D01*
X79528Y288189D02*
X79547Y288169D01*
X93248D01*
X93268Y288150D01*
X39370Y346457D02*
X40404Y345422D01*
X49853D01*
X77165Y318110D01*
X83071D01*
Y318504D02*
Y337008D01*
X190630Y322047D02*
Y343622D01*
X175591Y358661D02*
X190630Y343622D01*
X104724Y358661D02*
X175591D01*
X83071Y337008D02*
X104724Y358661D01*
X177559Y322598D02*
X177835Y322323D01*
X190354D01*
X190630Y322047D01*
X177559Y252441D02*
X177638Y252520D01*
X231024D01*
X231102Y252598D01*
X230630Y322047D02*
X230669Y322008D01*
Y290197D02*
Y322008D01*
Y290197D02*
X230709Y290158D01*
X196850Y308819D02*
X197986Y307683D01*
X203183D01*
X230709Y280157D01*
X177559Y292441D02*
Y302598D01*
X178312Y311845D02*
X185163D01*
X188853Y298819D02*
X196850D01*
X185163Y311845D02*
X187008Y310000D01*
Y300664D02*
Y310000D01*
Y300664D02*
X188853Y298819D01*
X177559Y312598D02*
X178312Y311845D01*
X148819Y244094D02*
X148819Y244094D01*
Y261024D01*
X123386D02*
X148819D01*
X160158Y272362D01*
Y312598D01*
X103327Y261083D02*
Y288091D01*
X103268Y288150D02*
X103327Y288091D01*
Y261083D02*
X103386Y261024D01*
X123268Y317431D02*
Y318150D01*
Y317431D02*
X143228Y297470D01*
Y277953D02*
Y297470D01*
X113268Y271142D02*
Y288150D01*
Y271142D02*
X123386Y261024D01*
X143228Y329528D02*
X160158Y312598D01*
X177559D01*
X123268Y318150D02*
Y329173D01*
X135433Y341339D01*
X158796D01*
X163914Y346457D01*
X167323D01*
X103248Y318169D02*
Y341319D01*
Y318169D02*
X103268Y318150D01*
X103228Y341339D02*
X103248Y341319D01*
X113268Y308868D02*
Y318150D01*
X93268Y288868D02*
X113268Y308868D01*
X93268Y288150D02*
Y288868D01*
X83071Y318110D02*
X83091Y318130D01*
X93248D01*
X93268Y318150D01*
X223819Y176181D02*
X273228Y126772D01*
X264567Y108661D02*
X273228Y117323D01*
Y126772D01*
X166024Y176181D02*
X223819D01*
X273228Y127047D02*
X354331Y127047D01*
X234469Y108661D02*
X264567D01*
X228267Y102460D02*
X234469Y108661D01*
X153543Y163701D02*
X166024Y176181D01*
X131575Y141732D02*
X153543Y163701D01*
X240748Y117126D02*
X260512D01*
X227598Y130276D02*
Y131142D01*
Y130276D02*
X240748Y117126D01*
X237795Y90551D02*
X247362D01*
X221457D02*
X237795D01*
Y99606D01*
X238398Y99004D01*
X247362Y90551D02*
Y91145D01*
X237657Y132027D02*
X237795Y131890D01*
X237657Y132027D02*
Y141595D01*
X237520Y141732D02*
X237657Y141595D01*
X123031Y87598D02*
X173543D01*
X187047Y101102D01*
X91457Y111299D02*
X115157Y87598D01*
X61024Y111299D02*
X91457D01*
X123031Y124016D02*
X138465Y108583D01*
X153543D01*
X354291Y117087D02*
X354331Y117047D01*
X300551Y117087D02*
X354291D01*
X300512Y117126D02*
X300551Y117087D01*
X228267Y101810D02*
Y102460D01*
X227598Y101142D02*
X228267Y101810D01*
X247362Y78740D02*
X247970Y78132D01*
X267340D01*
X267716Y77756D01*
X217598Y94410D02*
Y101142D01*
Y94410D02*
X221457Y90551D01*
X207480Y78858D02*
Y101024D01*
X207598Y101142D01*
X207362Y78740D02*
X207480Y78858D01*
X197598Y101142D02*
X197716Y101024D01*
Y59173D02*
Y101024D01*
Y59173D02*
X197835Y59055D01*
X187047Y101102D02*
X197559D01*
X197598Y101142D01*
X217598Y131142D02*
Y138858D01*
X220472Y141732D01*
X237520D01*
X221457Y162402D02*
X226378D01*
X237520Y151260D01*
Y141732D02*
Y151260D01*
X207598Y124921D02*
Y131142D01*
X205709Y123031D02*
X207598Y124921D01*
X194882Y123031D02*
X205709D01*
X187008Y130905D02*
X194882Y123031D01*
X187008Y130905D02*
Y141063D01*
X170905D02*
X187008D01*
X153543Y123701D02*
X170905Y141063D01*
X153543Y108583D02*
Y123701D01*
X50866Y121457D02*
Y141732D01*
Y121457D02*
X61024Y111299D01*
X90866Y141732D02*
X131575D01*
X74803D02*
X90866D01*
X39370Y177165D02*
X74803Y141732D01*
D43*
X209446Y424016D02*
X262205D01*
X200393Y433069D02*
X209446Y424016D01*
X163620Y482679D02*
X200433D01*
X150630Y495669D02*
X163620Y482679D01*
X100787Y467323D02*
Y481102D01*
X86221Y495669D02*
X100787Y481102D01*
X70630Y495669D02*
X86221D01*
X54488Y511811D02*
X70630Y495669D01*
X39370Y511811D02*
X54488D01*
X70748Y439094D02*
Y495551D01*
X70630Y495669D02*
X70748Y495551D01*
Y439094D02*
X70866Y438976D01*
D44*
X262205Y424016D02*
D03*
Y443701D02*
D03*
X79528Y288189D02*
D03*
D45*
X170433Y482679D02*
D03*
Y442679D02*
D03*
Y433069D02*
D03*
X200393D02*
D03*
X200403Y442679D02*
D03*
X200433Y482679D02*
D03*
D46*
X109843Y447638D02*
D03*
D47*
Y429528D02*
D03*
Y438583D02*
D03*
D48*
X118898Y467323D02*
D03*
X109843D02*
D03*
D49*
X100787D02*
D03*
D50*
X39370Y405512D02*
D03*
Y511811D02*
D03*
X226378Y416929D02*
D03*
X148819Y244094D02*
D03*
X167323Y346457D02*
D03*
X39370Y244094D02*
D03*
Y346457D02*
D03*
Y177165D02*
D03*
Y59055D02*
D03*
X197835D02*
D03*
D51*
X169291Y416929D02*
D03*
X201575D02*
D03*
X237795Y131890D02*
D03*
Y99606D02*
D03*
D52*
X231102Y262598D02*
D03*
Y252598D02*
D03*
X230709Y280157D02*
D03*
Y290158D02*
D03*
X354331Y117047D02*
D03*
Y127047D02*
D03*
D53*
X177559Y302598D02*
D03*
X196850Y308819D02*
D03*
D54*
X177559Y312598D02*
D03*
Y322598D02*
D03*
X196850Y298819D02*
D03*
Y288819D02*
D03*
D55*
X93268Y288150D02*
D03*
X103268D02*
D03*
X113268D02*
D03*
X123268D02*
D03*
X93268Y318150D02*
D03*
X103268D02*
D03*
X113268D02*
D03*
X123268D02*
D03*
D56*
X59843Y298029D02*
D03*
X59055Y278346D02*
D03*
D57*
X63071Y318110D02*
D03*
X83071D02*
D03*
X103386Y261024D02*
D03*
X123386D02*
D03*
D58*
X267716Y69882D02*
D03*
Y77756D02*
D03*
X213583Y162402D02*
D03*
X221457D02*
D03*
X115157Y124016D02*
D03*
X123031D02*
D03*
Y87598D02*
D03*
X115157D02*
D03*
D59*
X197598Y101142D02*
D03*
Y131142D02*
D03*
X207598Y101142D02*
D03*
Y131142D02*
D03*
X217598Y101142D02*
D03*
Y131142D02*
D03*
X227598Y101142D02*
D03*
Y131142D02*
D03*
D60*
X61024Y101299D02*
D03*
D61*
Y111299D02*
D03*
D62*
X377953Y535433D02*
D03*
X15748D02*
D03*
X377953Y15748D02*
D03*
X15748D02*
D03*
D63*
X90551Y428346D02*
D03*
X96850Y453937D02*
D03*
X89370Y447244D02*
D03*
X77165Y428346D02*
D03*
X55512Y438976D02*
D03*
X62598Y432283D02*
D03*
M02*
