G04*
G04 #@! TF.GenerationSoftware,Altium Limited,Altium Designer,20.0.13 (296)*
G04*
G04 Layer_Color=8421504*
%FSLAX25Y25*%
%MOIN*%
G70*
G01*
G75*
%ADD14R,0.05551X0.05315*%
%ADD15R,0.02646X0.06201*%
%ADD16R,0.05315X0.05551*%
G36*
X60216Y436536D02*
Y441575D01*
X60413Y441772D01*
X64941D01*
X65138Y441575D01*
X65158Y439961D01*
X63386D01*
Y438189D01*
X65118D01*
X65138Y436536D01*
X64941Y436339D01*
X60413D01*
X60216Y436536D01*
D02*
G37*
G36*
X68681D02*
X68681Y438189D01*
X70433D01*
Y439961D01*
X68701D01*
X68681Y441575D01*
X68878Y441772D01*
X73405D01*
X73602Y441575D01*
Y436536D01*
X73405Y436339D01*
X68878D01*
X68681Y436536D01*
D02*
G37*
G36*
X79965Y424476D02*
Y431776D01*
X79970Y431951D01*
X79982Y432126D01*
X80002Y432300D01*
X80031Y432473D01*
X80068Y432645D01*
X80112Y432814D01*
X80165Y432981D01*
X80225Y433146D01*
X80294Y433308D01*
X80369Y433466D01*
X80452Y433620D01*
X80542Y433771D01*
X80639Y433917D01*
X80743Y434058D01*
X80853Y434195D01*
X80970Y434326D01*
X81092Y434451D01*
X81220Y434571D01*
X81354Y434684D01*
X81493Y434791D01*
X81637Y434892D01*
X81785Y434985D01*
X81938Y435072D01*
X82094Y435151D01*
X82406Y435223D01*
Y441905D01*
X85005D01*
Y435223D01*
X85317Y435151D01*
X85473Y435072D01*
X85626Y434985D01*
X85774Y434892D01*
X85918Y434791D01*
X86057Y434684D01*
X86191Y434571D01*
X86319Y434451D01*
X86441Y434326D01*
X86558Y434195D01*
X86668Y434058D01*
X86772Y433917D01*
X86869Y433771D01*
X86959Y433620D01*
X87042Y433466D01*
X87117Y433308D01*
X87186Y433146D01*
X87246Y432981D01*
X87299Y432814D01*
X87343Y432645D01*
X87380Y432473D01*
X87409Y432300D01*
X87429Y432126D01*
X87441Y431951D01*
X87446Y431776D01*
Y424476D01*
X87441Y424300D01*
X87429Y424125D01*
X87409Y423951D01*
X87380Y423778D01*
X87343Y423607D01*
X87299Y423437D01*
X87246Y423270D01*
X87186Y423105D01*
X87117Y422944D01*
X87042Y422785D01*
X86959Y422631D01*
X86869Y422480D01*
X86772Y422334D01*
X86668Y422193D01*
X86558Y422057D01*
X86441Y421925D01*
X86319Y421800D01*
X86191Y421680D01*
X86057Y421567D01*
X85918Y421460D01*
X85774Y421360D01*
X85626Y421266D01*
X85473Y421180D01*
X85317Y421100D01*
X85157Y421029D01*
X84994Y420964D01*
X84828Y420908D01*
X84659Y420859D01*
X84489Y420818D01*
X84317Y420786D01*
X84143Y420761D01*
X83968Y420745D01*
X83793Y420737D01*
X83618D01*
X83443Y420745D01*
X83268Y420761D01*
X83094Y420786D01*
X82922Y420818D01*
X82752Y420859D01*
X82583Y420908D01*
X82417Y420964D01*
X82254Y421029D01*
X82094Y421100D01*
X81938Y421180D01*
X81785Y421266D01*
X81637Y421360D01*
X81493Y421460D01*
X81354Y421567D01*
X81220Y421680D01*
X81092Y421800D01*
X80970Y421925D01*
X80853Y422057D01*
X80743Y422193D01*
X80639Y422334D01*
X80542Y422480D01*
X80452Y422631D01*
X80369Y422785D01*
X80294Y422944D01*
X80225Y423105D01*
X80165Y423270D01*
X80112Y423437D01*
X80068Y423607D01*
X80031Y423778D01*
X80002Y423951D01*
X79982Y424125D01*
X79970Y424300D01*
X79965Y424476D01*
D02*
G37*
G36*
X94292Y441043D02*
X95945Y441043D01*
Y439291D01*
X97716D01*
Y441024D01*
X99331Y441043D01*
X99528Y440846D01*
Y436319D01*
X99331Y436122D01*
X94292D01*
X94095Y436319D01*
Y440846D01*
X94292Y441043D01*
D02*
G37*
G36*
Y449508D02*
X99331D01*
X99528Y449311D01*
Y444783D01*
X99331Y444587D01*
X97716Y444567D01*
Y446339D01*
X95945D01*
Y444606D01*
X94292Y444587D01*
X94095Y444783D01*
Y449311D01*
X94292Y449508D01*
D02*
G37*
D14*
X62756Y438976D02*
D03*
X70866D02*
D03*
D15*
X77834Y438804D02*
D03*
X89645D02*
D03*
D16*
X96732Y446969D02*
D03*
Y438858D02*
D03*
M02*
